<?xml version="1.0" encoding="utf-8"?>
<!-- Generator: Adobe Illustrator 24.0.1, SVG Export Plug-In . SVG Version: 6.00 Build 0)  -->
<svg version="1.1" id="Layer_1" xmlns="http://www.w3.org/2000/svg" xmlns:xlink="http://www.w3.org/1999/xlink" x="0px" y="0px"
	 viewBox="0 0 328 140" style="enable-background:new 0 0 328 140;" xml:space="preserve">
<style type="text/css">
	.st0{fill:#FFFFFF;}
	.st1{fill:#3A5FF9;stroke:#000000;stroke-width:0.75;stroke-miterlimit:10;}
	.st2{fill:#F73C52;stroke:#000000;stroke-width:0.75;stroke-miterlimit:10;}
	.st3{fill:#EBFF5A;stroke:#000000;stroke-width:0.75;stroke-miterlimit:10;}
	.st4{fill:#21BF25;stroke:#000000;stroke-width:0.75;stroke-miterlimit:10;}
</style>
<rect class="st0" width="328" height="140"/>
<g>
	<g>
		<path class="st1" d="M90.48,50.74c0,1.1-0.89,2.13-1.98,2.29c0,0-6.59,0.98-11.21,0.98c-7.25,0-12.72-1.17-16.96-3.56
			c-5.46-2.98-8.38-8.3-8.19-14.47c0.28-13.04,13.47-18.46,26.94-18.46c4.8,0,8.4,0.69,8.4,0.69c1.08,0.21,1.66,1.22,1.29,2.26
			l-0.81,2.25c-0.37,1.03-1.56,1.71-2.64,1.5c0,0-2.18-0.42-5.29-0.42c-8.38,0-15.07,3.25-15.07,12.61
			c0,8.62,5.93,11.71,11.68,11.71c1.13,0,1.13,0,1.13,0c0.73-0.09,1.32-1.06,1.32-2.16v-4.67c0-1.1-0.9-2-2-2h-1.65
			c-1.1,0-2-0.9-2-2v-1.69c0-1.1,0.9-2,2-2h13.05c1.1,0,2,0.9,2,2V50.74z"/>
		<path class="st2" d="M132.21,40.6c0,10.85-10.64,13.51-17.61,13.51c-11.02,0-17.61-4.9-17.61-13.35c0-9.36,8.67-13.51,17.8-13.51
			C125.62,27.25,132.21,32.41,132.21,40.6z M109.23,40.6c0,4.47,1.22,8.19,5.65,8.19c3.96,0,4.99-4.36,4.99-8.19
			c0-3.56-1.04-8.09-5.18-8.09C110.17,32.52,109.23,37.04,109.23,40.6z"/>
		<path class="st3" d="M172.81,40.6c0,10.85-10.64,13.51-17.61,13.51c-11.02,0-17.61-4.9-17.61-13.35c0-9.36,8.67-13.51,17.8-13.51
			C166.21,27.25,172.81,32.41,172.81,40.6z M149.82,40.6c0,4.47,1.22,8.19,5.65,8.19c3.96,0,4.99-4.36,4.99-8.19
			c0-3.56-1.04-8.09-5.18-8.09C150.77,32.52,149.82,37.04,149.82,40.6z"/>
		<path class="st1" d="M211.78,27.67c1.1,0,1.92,0.9,1.82,1.99l-0.19,4.26c-0.05,1.1-0.1,2.9-0.1,4v10.85c0,1.1-0.18,2.88-0.4,3.96
			c0,0-1.39,6.71-5.15,8.74c-3.39,1.81-8.19,2.87-14.98,2.87c-4.24,0-9.52-0.89-9.52-0.89c-1.08-0.18-1.62-1.16-1.2-2.18l0.71-1.69
			c0.43-1.01,1.66-1.66,2.73-1.43c0,0,3.32,0.7,6.9,0.7c6.22,0,7.94-4.47,7.94-4.47c0.4-1.03,0.72-2.22,0.72-2.66
			s-0.04-0.8-0.09-0.8s-0.89,0.43-1.85,0.95c0,0-3.05,1.65-6.53,1.65c-10.36,0-14.41-6.38-14.41-12.61
			c0-8.67,6.97-13.67,15.54-13.67c3.67,0,6.79,1.97,6.79,1.97c0.93,0.59,1.73,1.07,1.79,1.07s0.24-0.59,0.42-1.3s1.23-1.3,2.33-1.3
			H211.78z M201.06,39.15c0-1.1-0.04-2.31-0.09-2.69s-0.97-1.9-1.7-2.72c0,0-0.56-0.63-2.63-0.63c-4.43,0-6.22,3.41-6.22,7.66
			c0,4.84,2.45,7.29,5.93,7.29c1.6,0,2.53-0.68,2.53-0.68c0.89-0.65,1.74-1.49,1.9-1.87s0.28-2.28,0.28-3.38V39.15z"/>
		<path class="st4" d="M221.88,18.87c0-1.1,0.9-2,2-2h8.34c1.1,0,2,0.9,2,2v32.82c0,1.1-0.9,2-2,2h-8.34c-1.1,0-2-0.9-2-2V18.87z"/>
		<path class="st2" d="M255.34,43.16c-1.1,0-1.45,0.71-0.77,1.57c0,0,3.1,3.96,8.56,3.96c3.49,0,6.79-0.53,6.79-0.53
			c1.09-0.18,2.26,0.53,2.62,1.58l0.41,1.21c0.35,1.04-0.25,2.02-1.34,2.18c0,0-6.03,0.88-10.74,0.88c-12.53,0-19.4-4.68-19.4-12.82
			c0-8.73,8.01-13.94,18.46-13.94c9.89,0,15.64,4.42,15.64,12.29c0,1.86,0,1.86,0,1.86c-0.21,0.97-1.28,1.76-2.38,1.76H255.34z
			 M262.36,38.26c1.1,0,1.78-0.87,1.51-1.94c0,0-1.02-4.02-4.69-4.02c-4.05,0-5.2,4.04-5.2,4.04c-0.3,1.06,0.35,1.92,1.45,1.92
			H262.36z"/>
		<path class="st1" d="M108.68,115.05c0.23,1.08-0.48,2.1-1.56,2.28c0,0-3.3,0.53-7.63,0.53c-16.2,0-23.92-7.56-23.92-17.72
			c0-13.51,13.28-18.78,25.62-18.78c4.33,0,6.62,0.52,6.62,0.52c1.07,0.24,1.65,1.29,1.28,2.33l-0.74,2.08
			c-0.37,1.04-1.54,1.68-2.62,1.44c0,0-1.06-0.24-3.8-0.24c-6.97,0-13.28,3.41-13.28,12.29c0,8.57,5.75,11.92,13.28,11.92
			c2.07,0,3.95-0.26,3.95-0.26c1.09-0.15,2.17,0.61,2.39,1.68L108.68,115.05z"/>
		<path class="st2" d="M114.74,82.72c0-1.1,0.9-2,2-2h8.34c1.1,0,2,0.9,2,2v32.82c0,1.1-0.9,2-2,2h-8.34c-1.1,0-2-0.9-2-2V82.72z"/>
		<path class="st3" d="M169.56,104.45c0,10.85-10.64,13.51-17.61,13.51c-11.02,0-17.61-4.9-17.61-13.36
			c0-9.36,8.67-13.51,17.8-13.51C162.96,91.09,169.56,96.25,169.56,104.45z M146.57,104.45c0,4.47,1.22,8.19,5.65,8.19
			c3.96,0,4.99-4.36,4.99-8.19c0-3.57-1.04-8.09-5.18-8.09C147.52,96.36,146.57,100.88,146.57,104.45z"/>
		<path class="st1" d="M176.53,101.34c0-1.1-0.05-2.9-0.11-4l-0.12-3.83c-0.08-1.1,0.75-1.99,1.85-1.99h6.64
			c1.1,0,2.13,0.67,2.28,1.49s0.33,1.49,0.38,1.49s0.89-0.42,1.86-0.94c0,0,4.64-2.47,9.44-2.47c8.76,0,11.57,7.85,11.57,7.85
			c0.37,1.04,0.67,2.78,0.67,3.88v12.71c0,1.1-0.9,2-2,2h-8.34c-1.1,0-2-0.9-2-2v-12.28c0-1.1-0.19-2.88-0.43-3.95
			c0,0-0.51-2.36-4.09-2.36c-2.07,0-3.14,0.99-3.14,0.99c-0.81,0.74-1.62,1.67-1.8,2.05s-0.33,2.6-0.33,3.7v11.86c0,1.1-0.9,2-2,2
			h-8.34c-1.1,0-2-0.9-2-2V101.34z"/>
		<path class="st2" d="M231.93,107c-1.1,0-1.45,0.71-0.77,1.57c0,0,3.1,3.96,8.56,3.96c3.49,0,6.79-0.53,6.79-0.53
			c1.09-0.18,2.26,0.53,2.62,1.58l0.41,1.21c0.35,1.04-0.25,2.02-1.34,2.18c0,0-6.03,0.88-10.74,0.88c-12.53,0-19.4-4.68-19.4-12.82
			c0-8.73,8.01-13.94,18.46-13.94c9.89,0,15.64,4.42,15.64,12.29c0,1.86,0,1.86,0,1.86c-0.21,0.97-1.28,1.76-2.38,1.76H231.93z
			 M238.95,102.11c1.1,0,1.78-0.87,1.51-1.94c0,0-1.02-4.02-4.69-4.02c-4.05,0-5.2,4.04-5.2,4.04c-0.3,1.06,0.35,1.92,1.45,1.92
			H238.95z"/>
	</g>
</g>
</svg>
