<?xml version="1.0" encoding="utf-8"?>
<!-- Generator: Adobe Illustrator 24.0.1, SVG Export Plug-In . SVG Version: 6.00 Build 0)  -->
<svg version="1.1" id="Layer_1" xmlns="http://www.w3.org/2000/svg" xmlns:xlink="http://www.w3.org/1999/xlink" x="0px" y="0px"
	 viewBox="0 0 328 140" style="enable-background:new 0 0 328 140;" xml:space="preserve">
<style type="text/css">
	.st0{fill:#141316;}
	.st1{fill:#FD951F;}
</style>
<rect class="st0" width="328" height="140"/>
<g>
	<g>
		<path class="st1" d="M23.54,105.21c-0.5-0.98-1.36-1.78-1.91-1.78s-1.01,0.9-1.01,2v11.95c0,1.1-0.9,2-2,2h-3.36c-1.1,0-2-0.9-2-2
			V83.37c0-1.1,0.9-2,2-2h3.36c1.1,0,2,0.9,2,2v11.56c0,1.1,0.34,2,0.76,2s1.17-0.8,1.68-1.78l6.23-12.01
			c0.51-0.98,1.82-1.78,2.92-1.78h5.14c1.1,0,1.52,0.76,0.93,1.69l-8.83,13.98c-0.59,0.93-0.62,2.47-0.08,3.43l9.79,17.18
			c0.54,0.96,0.09,1.74-1.01,1.74h-5.4c-1.1,0-2.41-0.8-2.91-1.78L23.54,105.21z"/>
		<path class="st1" d="M58.71,119.39c-1.1,0-2.23-0.59-2.51-1.31c0,0,0,0-0.18-0.73c-0.18-0.73-0.18-0.73-0.18-0.73
			c-0.12-0.83-0.66-0.73-1.21,0.23c0,0-0.47,0.83-1.48,1.73c-1.02,0.91-2.27,1.36-3.75,1.36c-2.58,0-4.56-0.75-5.94-2.26
			c-1.38-1.51-2.08-3.57-2.08-6.2c0-2.75,0.91-4.89,2.73-6.41s6.17-2.05,6.17-2.05c1.09-0.13,2.71-0.24,3.59-0.24
			s1.61-0.53,1.61-1.17s-0.09-2.07-0.21-3.16c0,0-0.05-0.51-0.58-1.26c-0.52-0.76-1.3-1.14-2.32-1.14c-0.91,0-1.59,0.3-2.06,0.91
			c-0.47,0.61-0.47,0.62-0.47,0.62c-0.13,1.09-1.13,1.98-2.23,1.98l-3.1-0.01c-1.1,0-2.01-0.04-2.03-0.09s0.13-0.96,0.33-2.05
			c0,0,0.46-2.54,2.39-4.25c1.93-1.71,4.48-2.56,7.65-2.56c2.98,0,5.39,0.85,7.23,2.56s2.44,5.34,2.44,5.34
			c0.18,1.09,0.32,2.87,0.32,3.97v7.59c0,1.1,0.03,2.9,0.07,4c0,0,0.02,0.58,0.21,1.76c0.19,1.18,0.32,1.63,0.32,1.63
			c0.31,1.06-0.34,1.92-1.44,1.92H58.71z M51.3,114.48c0.97,0,1.84-0.3,2.61-0.9s0.77-0.6,0.77-0.6c0.44-0.87,0.8-2.48,0.8-3.58
			v-0.44c0-1.1-0.72-2-1.61-2s-2.49,0.17-3.57,0.37c0,0-0.17,0.03-0.74,0.83c-0.57,0.8-0.85,1.81-0.85,3.03
			c0,0.98,0.23,1.77,0.71,2.38C49.89,114.17,50.52,114.48,51.3,114.48z"/>
		<path class="st1" d="M72.33,91.13c1.1,0,2.07,0.89,2.16,1.97s0.68,1.24,1.31,0.34c0,0,0.62-0.88,1.78-1.66
			c1.16-0.78,2.45-1.18,3.88-1.18c2.4,0,4.29,0.94,5.65,2.81c1.37,1.87,1.85,6.82,1.85,6.82c0.11,1.09,0.2,2.89,0.2,3.99v13.15
			c0,1.1-0.9,2-2,2H83.8c-1.1,0-2-0.9-2-2v-13.15c0-1.1-0.06-2.9-0.14-3.99c0,0-0.12-1.63-0.63-2.51c-0.51-0.88-1.29-1.32-2.34-1.32
			c-0.82,0-1.55,0.19-2.21,0.57c-0.65,0.38-0.65,0.38-0.65,0.38c-0.55,0.68-1.01,2.14-1.01,3.24v16.78c0,1.1-0.9,2-2,2h-3.36
			c-1.1,0-2-0.9-2-2V93.13c0-1.1,0.9-2,2-2H72.33z"/>
		<path class="st1" d="M116.32,105.69c0,0.15-0.09,1.17-0.21,2.26c0,0-0.6,5.67-2.21,8.19c-1.61,2.52-3.96,3.79-7.06,3.79
			c-1.36,0-2.54-0.32-3.55-0.95c-1.01-0.64-1.39-1.15-1.39-1.15c-0.66-0.88-1.3-0.89-1.44-0.03s-1.15,1.58-2.25,1.58h-2.29
			c-1.1,0-2-0.9-2-2V80.65c0-1.1,0.9-2,2-2h3.34c1.1,0,2,0.9,2,2v10.99c0,1.1,0.59,1.32,1.3,0.48c0,0,0.18-0.21,1.1-0.73
			c0.92-0.52,1.98-0.78,3.16-0.78c3.12,0,5.48,1.34,7.09,4.02c1.61,2.68,2.22,8.79,2.22,8.79
			C116.23,104.52,116.32,105.54,116.32,105.69z M108.96,105.69c0-0.15-0.05-1.17-0.11-2.27c0,0-0.17-3.05-0.75-4.64
			c-0.57-1.58-1.63-2.38-3.16-2.38c-0.85,0-1.59,0.22-2.21,0.65c-0.62,0.43-0.62,0.43-0.62,0.43c-0.47,0.77-0.86,2.29-0.86,3.39
			v9.13c0,1.1,0.38,2.56,0.85,3.25c0,0,0,0,0.61,0.36c0.61,0.36,1.36,0.54,2.25,0.54c1.55,0,2.6-0.7,3.16-2.09
			c0.56-1.39,0.72-4.11,0.72-4.11C108.9,106.86,108.96,105.84,108.96,105.69z"/>
		<path class="st1" d="M136.34,119.39c-1.1,0-2.23-0.59-2.51-1.31c0,0,0,0-0.18-0.73c-0.18-0.73-0.18-0.73-0.18-0.73
			c-0.12-0.83-0.66-0.73-1.21,0.23c0,0-0.47,0.83-1.48,1.73c-1.02,0.91-2.27,1.36-3.75,1.36c-2.58,0-4.56-0.75-5.94-2.26
			c-1.38-1.51-2.08-3.57-2.08-6.2c0-2.75,0.91-4.89,2.73-6.41s6.17-2.05,6.17-2.05c1.09-0.13,2.71-0.24,3.59-0.24
			s1.61-0.53,1.61-1.17s-0.09-2.07-0.21-3.16c0,0-0.05-0.51-0.58-1.26c-0.52-0.76-1.3-1.14-2.32-1.14c-0.91,0-1.59,0.3-2.06,0.91
			c-0.47,0.61-0.47,0.62-0.47,0.62c-0.13,1.09-1.13,1.98-2.23,1.98l-3.1-0.01c-1.1,0-2.01-0.04-2.03-0.09s0.13-0.96,0.33-2.05
			c0,0,0.46-2.54,2.39-4.25c1.93-1.71,4.48-2.56,7.65-2.56c2.98,0,5.39,0.85,7.23,2.56s2.44,5.34,2.44,5.34
			c0.18,1.09,0.32,2.87,0.32,3.97v7.59c0,1.1,0.03,2.9,0.07,4c0,0,0.02,0.58,0.21,1.76c0.19,1.18,0.32,1.63,0.32,1.63
			c0.31,1.06-0.34,1.92-1.44,1.92H136.34z M128.93,114.48c0.97,0,1.84-0.3,2.61-0.9s0.77-0.6,0.77-0.6c0.44-0.87,0.8-2.48,0.8-3.58
			v-0.44c0-1.1-0.72-2-1.61-2s-2.49,0.17-3.57,0.37c0,0-0.17,0.03-0.74,0.83c-0.57,0.8-0.85,1.81-0.85,3.03
			c0,0.98,0.23,1.77,0.71,2.38C127.52,114.17,128.15,114.48,128.93,114.48z"/>
		<path class="st1" d="M149.96,91.13c1.1,0,2.07,0.89,2.16,1.97s0.68,1.24,1.31,0.34c0,0,0.62-0.88,1.78-1.66
			c1.16-0.78,2.45-1.18,3.88-1.18c2.4,0,4.29,0.94,5.65,2.81c1.37,1.87,1.85,6.82,1.85,6.82c0.11,1.09,0.2,2.89,0.2,3.99v13.15
			c0,1.1-0.9,2-2,2h-3.36c-1.1,0-2-0.9-2-2v-13.15c0-1.1-0.06-2.9-0.14-3.99c0,0-0.12-1.63-0.63-2.51
			c-0.51-0.88-1.29-1.32-2.34-1.32c-0.82,0-1.55,0.19-2.21,0.57c-0.65,0.38-0.65,0.38-0.65,0.38c-0.55,0.68-1,2.14-1,3.24v16.78
			c0,1.1-0.9,2-2,2h-3.36c-1.1,0-2-0.9-2-2V93.13c0-1.1,0.9-2,2-2H149.96z"/>
		<path class="st1" d="M205.77,105.69c0,0.15-0.09,1.17-0.21,2.26c0,0-0.6,5.67-2.21,8.19c-1.61,2.52-3.96,3.79-7.06,3.79
			c-1.36,0-2.54-0.32-3.55-0.95c-1.01-0.64-1.39-1.15-1.39-1.15c-0.66-0.88-1.3-0.89-1.44-0.03s-1.15,1.58-2.25,1.58h-2.29
			c-1.1,0-2-0.9-2-2V80.65c0-1.1,0.9-2,2-2h3.34c1.1,0,2,0.9,2,2v10.99c0,1.1,0.59,1.32,1.3,0.48c0,0,0.18-0.21,1.1-0.73
			c0.92-0.52,1.98-0.78,3.16-0.78c3.12,0,5.48,1.34,7.09,4.02c1.61,2.68,2.22,8.79,2.22,8.79
			C205.69,104.52,205.77,105.54,205.77,105.69z M198.41,105.69c0-0.15-0.05-1.17-0.11-2.27c0,0-0.17-3.05-0.75-4.64
			c-0.58-1.58-1.63-2.38-3.16-2.38c-0.85,0-1.59,0.22-2.21,0.65c-0.62,0.43-0.62,0.43-0.62,0.43c-0.47,0.77-0.86,2.29-0.86,3.39
			v9.13c0,1.1,0.38,2.56,0.85,3.25c0,0,0,0,0.61,0.36c0.61,0.36,1.36,0.54,2.25,0.54c1.55,0,2.6-0.7,3.16-2.09
			c0.56-1.39,0.72-4.11,0.72-4.11C198.36,106.86,198.41,105.84,198.41,105.69z"/>
		<path class="st1" d="M208.78,105.3c0-0.17,0.12-1.19,0.26-2.28c0,0,0.75-5.72,2.78-8.4c2.03-2.67,4.88-4.01,8.55-4.01
			c3.66,0,6.51,1.34,8.56,4.01c2.05,2.67,2.82,8.4,2.82,8.4c0.15,1.09,0.26,2.12,0.26,2.28s-0.12,1.19-0.26,2.28
			c0,0-0.76,5.72-2.8,8.37c-2.05,2.65-4.89,3.98-8.53,3.98c-3.69,0-6.55-1.32-8.59-3.97c-2.04-2.65-2.79-8.38-2.79-8.38
			C208.89,106.49,208.78,105.46,208.78,105.3z M216.11,105.3c0,0.17,0.06,1.2,0.14,2.3c0,0,0.19,2.72,0.84,4.27
			c0.65,1.55,1.76,2.32,3.33,2.32c1.5,0,2.58-0.77,3.24-2.32c0.66-1.55,0.85-4.27,0.85-4.27c0.08-1.1,0.14-2.13,0.14-2.3
			s-0.06-1.2-0.14-2.3c0,0-0.19-2.68-0.85-4.26c-0.66-1.58-1.76-2.36-3.29-2.36c-1.53,0-2.62,0.79-3.28,2.38
			c-0.65,1.58-0.84,4.25-0.84,4.25C216.18,104.1,216.11,105.13,216.11,105.3z"/>
		<path class="st1" d="M252.11,119.39c-1.1,0-2.23-0.59-2.51-1.31c0,0,0,0-0.18-0.73c-0.18-0.73-0.18-0.73-0.18-0.73
			c-0.12-0.83-0.66-0.73-1.2,0.23c0,0-0.47,0.83-1.48,1.73c-1.02,0.91-2.27,1.36-3.75,1.36c-2.58,0-4.56-0.75-5.94-2.26
			s-2.08-3.57-2.08-6.2c0-2.75,0.91-4.89,2.73-6.41c1.82-1.52,6.17-2.05,6.17-2.05c1.09-0.13,2.71-0.24,3.59-0.24
			s1.61-0.53,1.61-1.17s-0.09-2.07-0.21-3.16c0,0-0.05-0.51-0.57-1.26c-0.52-0.76-1.3-1.14-2.32-1.14c-0.91,0-1.59,0.3-2.06,0.91
			s-0.47,0.62-0.47,0.62c-0.13,1.09-1.13,1.98-2.23,1.98l-3.1-0.01c-1.1,0-2.01-0.04-2.03-0.09s0.13-0.96,0.33-2.05
			c0,0,0.46-2.54,2.39-4.25c1.93-1.71,4.48-2.56,7.65-2.56c2.98,0,5.39,0.85,7.23,2.56c1.84,1.71,2.44,5.34,2.44,5.34
			c0.18,1.09,0.32,2.87,0.32,3.97v7.59c0,1.1,0.03,2.9,0.07,4c0,0,0.02,0.58,0.21,1.76s0.32,1.63,0.32,1.63
			c0.31,1.06-0.34,1.92-1.44,1.92H252.11z M244.71,114.48c0.97,0,1.84-0.3,2.61-0.9c0.77-0.6,0.77-0.6,0.77-0.6
			c0.44-0.87,0.8-2.48,0.8-3.58v-0.44c0-1.1-0.72-2-1.61-2s-2.49,0.17-3.57,0.37c0,0-0.17,0.03-0.74,0.83
			c-0.57,0.8-0.85,1.81-0.85,3.03c0,0.98,0.23,1.77,0.71,2.38C243.29,114.17,243.92,114.48,244.71,114.48z"/>
		<path class="st1" d="M274.39,95.52c-0.13,1.09-0.79,1.97-1.48,1.95s-1.93,0.06-2.75,0.18c0,0,0,0-0.55,0.43
			c-0.55,0.44-0.55,0.44-0.55,0.44c-0.39,0.77-0.72,2.29-0.72,3.39v15.48c0,1.1-0.9,2-2,2H263c-1.1,0-2-0.9-2-2V93.13
			c0-1.1,0.9-2,2-2h2.87c1.1,0,2.06,0.9,2.14,1.99l0,0.01c0.08,1.1,0.54,1.19,1.02,0.2c0,0,0.36-0.74,1.2-1.53
			c0.84-0.79,1.81-1.19,2.91-1.19c0.33,0,0.64,0.03,0.91,0.09c0.28,0.06,0.28,0.06,0.28,0.06c0.32,0.09,0.48,1.05,0.35,2.15
			L274.39,95.52z"/>
		<path class="st1" d="M276.64,105.69c0-0.15,0.09-1.17,0.21-2.26c0,0,0.62-6.03,2.28-8.74c1.65-2.71,4-4.07,7.02-4.07
			c1.13,0,2.15,0.27,3.07,0.81c0.91,0.54,1.13,0.79,1.13,0.79c0.72,0.83,1.31,0.61,1.31-0.49V80.65c0-1.1,0.9-2,2-2h3.36
			c1.1,0,2,0.9,2,2v36.73c0,1.1-0.9,2-2,2h-2.29c-1.1,0-2.12-0.72-2.27-1.59s-0.82-0.88-1.48,0c0,0-0.42,0.55-1.43,1.19
			c-1.01,0.63-2.16,0.95-3.45,0.95c-2.99,0-5.32-1.27-6.97-3.83c-1.65-2.55-2.26-8.16-2.26-8.16
			C276.74,106.86,276.64,105.84,276.64,105.69z M283.95,105.69c0,0.15,0.06,1.17,0.14,2.27c0,0,0.18,2.57,0.8,4.02
			c0.63,1.45,1.66,2.18,3.11,2.18c0.8,0,1.51-0.19,2.13-0.56s0.62-0.37,0.62-0.37c0.5-0.71,0.91-2.18,0.91-3.28v-8.98
			c0-1.1-0.41-2.64-0.91-3.43c0,0,0,0-0.63-0.45c-0.63-0.45-1.32-0.68-2.09-0.68c-1.43,0-2.46,0.83-3.11,2.48
			c-0.64,1.65-0.83,4.53-0.83,4.53C284.01,104.52,283.95,105.54,283.95,105.69z"/>
	</g>
</g>
<polygon class="st1" points="309,0 328,8.88 328,12.63 303,0 "/>
<polygon class="st1" points="285,0 328,21 328,25 278,0 "/>
<polygon class="st1" points="261,0 328,34 328,38 254,0 "/>
</svg>
