<?xml version="1.0" encoding="utf-8"?>
<!-- Generator: Adobe Illustrator 24.0.1, SVG Export Plug-In . SVG Version: 6.00 Build 0)  -->
<svg version="1.1" id="Layer_1" xmlns="http://www.w3.org/2000/svg" xmlns:xlink="http://www.w3.org/1999/xlink" x="0px" y="0px"
	 viewBox="0 0 328 140" style="enable-background:new 0 0 328 140;" xml:space="preserve">
<style type="text/css">
	.st0{fill:#ED2F2F;}
	.st1{fill:#FFFFFF;stroke:#000000;stroke-width:3;}
</style>
<rect class="st0" width="328" height="140"/>
<g>
	<g>
		<path class="st1" d="M44.15,50.74c0-1.65,1.34-3.14,2.98-3.32c0,0,4.4-0.47,8.64-0.47c6.62,0,11.79,0.66,15.53,3.12
			c3.39,2.1,4.92,5.47,4.92,8.89c0,4.39-1.87,7.45-4.84,9.73c-3.56,2.64-9.33,3.85-13.92,3.85c-0.76,0-0.76,0-0.76,0
			c-0.79,0-1.44,1.35-1.44,3v9.08c0,1.65-1.35,3-3,3h-5.12c-1.65,0-3-1.35-3-3V50.74z M55.27,63.12c0,1.65,0.5,3.05,1.1,3.12
			c0,0,0,0,0.68,0c5.6,0,8.15-2.82,8.15-6.61c0-3.55-2.04-6.31-7.21-6.31c-1.02,0-1.02,0-1.02,0c-0.93,0.17-1.7,1.65-1.7,3.3V63.12z
			"/>
		<path class="st1" d="M112.2,72.85c0,12.26-9.59,15.26-15.87,15.26c-9.93,0-15.87-5.53-15.87-15.08c0-10.58,7.81-15.26,16.04-15.26
			C106.26,57.77,112.2,63.6,112.2,72.85z M91.5,72.85c0,5.05,1.1,9.25,5.09,9.25c3.56,0,4.5-4.93,4.5-9.25
			c0-4.03-0.93-9.13-4.67-9.13C92.35,63.72,91.5,68.83,91.5,72.85z"/>
		<path class="st1" d="M129.51,68.11c0,1.65,0.04,3,0.08,3s0.39-0.65,0.76-1.44s2.15-3.8,3-5.21l2.22-3.65
			c0.86-1.41,2.91-2.56,4.56-2.56h5.96c1.65,0,2.15,1.05,1.11,2.33l-6.23,7.66c-1.04,1.28-1.18,3.47-0.31,4.88l7.44,11.97
			c0.87,1.4,0.23,2.55-1.42,2.55h-6.39c-1.65,0-3.6-1.21-4.32-2.69l-3.29-6.69c-0.73-1.48-1.74-2.12-2.26-1.43s-0.93,2.61-0.93,4.26
			v3.55c0,1.65-1.35,3-3,3h-5.12c-1.65,0-3-1.35-3-3V49.05c0-1.65,1.35-3,3-3h5.12c1.65,0,3,1.35,3,3V68.11z"/>
		<path class="st1" d="M165.77,75.74c-1.65,0-2.28,1.14-1.41,2.54c0,0,2.31,3.7,7.24,3.7c3.14,0,4.95-0.37,4.95-0.37
			c1.62-0.33,3.28,0.68,3.7,2.23s-0.56,3.07-2.19,3.37c0,0-4.26,0.78-8.51,0.78c-11.29,0-17.48-5.29-17.48-14.48
			c0-9.85,7.21-15.74,16.63-15.74c8.91,0,14.09,4.99,14.09,13.88c0,2.1,0,2.1,0,2.1c-0.19,1.09-1.69,1.98-3.34,1.98H165.77z
			 M169.7,70.21c1.65,0,2.73-1.32,2.41-2.94c0,0-0.76-3.79-4.07-3.79c-3.65,0-4.51,3.8-4.51,3.8c-0.37,1.61,0.69,2.93,2.34,2.93
			H169.7z M177.33,46.23c1.65,0,2.04,0.95,0.86,2.1l-4.29,4.21c-1.18,1.16-3.49,2.1-5.14,2.1h-0.96c-1.65,0-2.23-1.11-1.29-2.46
			l2.43-3.49c0.94-1.35,3.06-2.46,4.71-2.46H177.33z"/>
		<path class="st1" d="M216.19,46.05c1.65,0,3,1.35,3,3v26.87c0,1.65,0.04,4.35,0.08,6c0,0-0.01,1.15,0.09,2.77
			s-1.18,2.94-2.83,2.94h-3.59c-1.65,0-3.13-0.74-3.3-1.65s-0.34-1.65-0.38-1.65s-1.15,0.83-2.45,1.85c0,0-2.47,1.94-6.29,1.94
			c-8.82,0-12.9-6.91-12.9-15.14c0-10.22,6.28-15.2,13.32-15.2c3.65,0,4.72,0.95,4.72,0.95c1.23,1.1,2.28,1.99,2.33,1.99
			s0.08-1.35,0.08-3v-8.66c0-1.65,1.35-3,3-3H216.19z M208.08,72.55c0-1.65,0-3.26,0-3.57s-0.71-2.37-1.47-3.83
			c0,0-0.4-0.76-2.6-0.76c-3.9,0-5.35,4.03-5.35,8.77c0,5.59,2.12,8.53,5.26,8.53c1.36,0,1.75-0.41,1.75-0.41
			c1.14-1.19,2.15-2.42,2.24-2.71s0.17-2.61,0.17-4.26V72.55z"/>
		<path class="st1" d="M239.25,75.74c-1.65,0-2.28,1.14-1.41,2.54c0,0,2.31,3.7,7.24,3.7c3.14,0,4.95-0.37,4.95-0.37
			c1.62-0.33,3.28,0.68,3.7,2.23s-0.56,3.07-2.19,3.37c0,0-4.26,0.78-8.51,0.78c-11.29,0-17.48-5.29-17.48-14.48
			c0-9.85,7.21-15.74,16.63-15.74c8.91,0,14.09,4.99,14.09,13.88c0,2.1,0,2.1,0,2.1c-0.19,1.09-1.69,1.98-3.34,1.98H239.25z
			 M243.17,70.21c1.65,0,2.73-1.32,2.41-2.94c0,0-0.76-3.79-4.07-3.79c-3.65,0-4.51,3.8-4.51,3.8c-0.37,1.61,0.69,2.93,2.34,2.93
			H243.17z"/>
		<path class="st1" d="M268.29,58.25c1.65,0,3.57,1.18,4.27,2.61s1.62,3.4,2.04,4.36s1.31,3.18,1.36,3.18s0.37-0.74,0.72-1.65
			s1.87-4.45,2.55-5.89s2.58-2.61,4.23-2.61h5.2c1.65,0,2.26,1.13,1.36,2.51l-6.14,9.4c-0.9,1.38-0.91,3.65-0.02,5.04l6.35,9.91
			c0.89,1.39,0.27,2.53-1.38,2.53h-6.13c-1.65,0-3.61-1.2-4.36-2.68l-0.09-0.18c-0.75-1.47-1.68-3.35-2.08-4.18s-1.35-3-1.4-3
			s-0.37,0.68-0.72,1.5s-1.79,4.23-2.48,5.73l-0.04,0.08c-0.69,1.5-2.6,2.72-4.25,2.72h-5.12c-1.65,0-2.28-1.14-1.39-2.53l6.04-9.53
			c0.88-1.39,0.89-3.68,0.02-5.08l-6-9.68c-0.87-1.4-0.23-2.55,1.42-2.55H268.29z"/>
	</g>
</g>
</svg>
