<?xml version="1.0" encoding="utf-8"?>
<!-- Generator: Adobe Illustrator 24.0.1, SVG Export Plug-In . SVG Version: 6.00 Build 0)  -->
<svg version="1.1" id="Layer_1" xmlns="http://www.w3.org/2000/svg" xmlns:xlink="http://www.w3.org/1999/xlink" x="0px" y="0px"
	 viewBox="0 0 328 140" style="enable-background:new 0 0 328 140;" xml:space="preserve">
<style type="text/css">
	.st0{fill:#315FCB;}
	.st1{fill:none;stroke:#FFA07A;stroke-width:4;stroke-miterlimit:10;}
	.st2{fill:#FFA07A;}
	.st3{fill:#FFFFFF;}
</style>
<rect class="st0" width="328" height="140"/>
<g>
	<polygon class="st1" points="247.97,58.77 274.44,41.13 314.15,51.42 312.68,92.6 293.56,116.13 246.5,104.36 	"/>
	<polyline class="st1" points="247.97,58.77 293.56,70.54 293.56,116.13 	"/>
	<line class="st1" x1="293.56" y1="70.54" x2="314.15" y2="51.42"/>
	<polygon class="st2" points="288.41,44.8 266.35,65.39 264.88,80.1 275.18,81.57 276.65,66.86 297.24,47.74 	"/>
	<polygon class="st2" points="284,105.1 275.18,103.63 275.18,96.27 284,97.74 	"/>
</g>
<g>
	<g>
		<path class="st3" d="M67.75,53.68c0-1.43-0.42-2.61-1.25-3.54c-0.83-0.92-2.31-1.77-4.41-2.53c-3-0.92-5.31-2.1-6.92-3.55
			c-1.61-1.45-2.42-3.38-2.42-5.79c0-2.47,0.89-4.5,2.67-6.1s4.06-2.4,6.84-2.4c2.96,0,5.33,0.89,7.11,2.67
			c1.79,1.78,2.43,5.7,2.43,5.7c0.09,0.54,0.15,1.02,0.14,1.05s-0.47,0.06-1.02,0.06h-2.28c-0.55,0-1.07-0.45-1.15-0.99
			c0,0-0.35-2.33-1.34-3.46c-1-1.13-2.31-1.7-3.93-1.7c-1.58,0-2.81,0.49-3.68,1.46c-0.87,0.98-1.31,2.19-1.31,3.66
			c0,1.36,0.46,2.49,1.38,3.38c0.92,0.89,2.47,1.73,4.65,2.52c2.91,0.93,5.13,2.15,6.65,3.66c1.52,1.51,2.28,3.46,2.28,5.85
			c0,2.55-0.9,4.59-2.69,6.1c-1.79,1.51-4.15,2.27-7.06,2.27c-2.81,0-5.25-0.82-7.33-2.45c-2.08-1.63-2.84-6.05-2.84-6.05
			c-0.09-0.54-0.16-1.01-0.15-1.05s0.47-0.06,1.02-0.06h2.3c0.55,0,1.07,0.44,1.15,0.99c0,0,0.42,2.72,1.57,3.77
			c1.15,1.05,2.57,1.57,4.27,1.57c1.65,0,2.95-0.46,3.89-1.37C67.28,56.44,67.75,55.22,67.75,53.68z"/>
		<path class="st3" d="M81.47,31.18c0,0.55-0.45,1-1,1h-2.48c-0.55,0-1-0.45-1-1V29c0-0.55,0.45-1,1-1h2.48c0.55,0,1,0.45,1,1V31.18
			z M81.47,60.56c0,0.55-0.45,1-1,1h-2.48c-0.55,0-1-0.45-1-1V39.28c0-0.55,0.45-1,1-1h2.48c0.55,0,1,0.45,1,1V60.56z"/>
		<path class="st3" d="M91.65,32.5c0.55,0,1,0.45,1,1v3.79c0,0.55,0.45,1,1,1h1.71c0.55,0,1,0.45,1,1v1.12c0,0.55-0.45,1-1,1h-1.71
			c-0.55,0-1,0.45-1,1v11.85c0,0.55,0.04,1.45,0.09,2c0,0,0.1,1.07,0.47,1.57c0.37,0.51,0.87,0.76,1.48,0.76
			c0.25,0,0.48-0.02,0.7-0.06c0.22-0.04,0.22-0.04,0.22-0.04c0.3-0.08,0.62,0.29,0.7,0.84l0.16,1.03c0.08,0.54-0.25,1.15-0.75,1.35
			c0,0,0,0-0.52,0.12c-0.52,0.12-1.06,0.18-1.61,0.18c-1.71,0-3.04-0.54-4-1.62c-0.95-1.08-1.31-4.14-1.31-4.14
			c-0.06-0.55-0.12-1.44-0.12-1.99V42.4c0-0.55-0.45-1-1-1h-1.14c-0.55,0-1-0.45-1-1v-1.12c0-0.55,0.45-1,1-1h1.14
			c0.55,0,1-0.45,1-1V33.5c0-0.55,0.45-1,1-1H91.65z"/>
		<path class="st3" d="M108.98,62.01c-2.96,0-5.27-1.06-6.95-3.18s-2.38-7.29-2.38-7.29c-0.07-0.54-0.13-1.22-0.13-1.5
			s0.06-0.95,0.13-1.5c0,0,0.7-5.22,2.37-7.41c1.67-2.19,3.85-3.28,6.54-3.28c2.71,0,4.77,0.94,6.18,2.82s2,6.58,2,6.58
			c0.07,0.55,0.12,1.44,0.12,1.99v0.45c0,0.55-0.45,1-1,1h-10.89c-0.55,0-0.95,0.45-0.9,0.99c0,0,0.33,3.31,1.21,4.79
			c0.87,1.48,2.21,2.22,4.01,2.22c1.24,0,2.33-0.19,3.25-0.57c0.92-0.38,1.76-1.05,1.76-1.05c0.43-0.34,1-0.22,1.26,0.26l0.51,0.95
			c0.26,0.49,0.12,1.16-0.31,1.51c0,0-1.05,0.85-2.35,1.39C112.11,61.74,110.64,62.01,108.98,62.01z M108.56,41.21
			c-1.29,0-2.31,0.58-3.07,1.75c-0.76,1.17-1.24,3.65-1.24,3.65c-0.1,0.54,0.26,0.98,0.81,0.98h6.41c0.55,0,1-0.11,1-0.25
			s-0.04-0.7-0.1-1.24c0,0-0.22-2.17-0.85-3.26C110.88,41.75,109.9,41.21,108.56,41.21z"/>
		<path class="st3" d="M123.96,38.28c0.55,0,1.03,0.45,1.08,1l0.09,1.17c0.04,0.55,0.34,0.63,0.67,0.19c0,0,0.9-1.23,1.92-1.85
			c1.02-0.62,2.2-0.94,3.55-0.94c1.32,0,2.46,0.35,3.43,1.06c0.97,0.71,1.74,2.33,1.74,2.33c0.24,0.5,0.67,0.52,0.95,0.05
			c0,0,0.95-1.55,1.99-2.31c1.05-0.76,2.28-1.14,3.7-1.14c2.06,0,3.69,0.82,4.86,2.46c1.18,1.64,1.67,6.5,1.67,6.5
			c0.06,0.55,0.1,1.44,0.1,1.99v11.74c0,0.55-0.45,1-1,1h-2.48c-0.55,0-1-0.45-1-1V48.79c0-0.55-0.03-1.45-0.07-2
			c0,0-0.23-3.12-0.85-4.09c-0.61-0.97-1.53-1.45-2.74-1.45c-1.02,0-1.88,0.37-2.58,1.12c-0.7,0.75-1.17,2.01-1.17,2.01
			c-0.19,0.51-0.34,1.17-0.32,1.46c0,0,0,0,0.01,0.28c0.01,0.28,0.01,0.28,0.01,0.28c0,0.31,0.01,1.02,0.01,1.57v12.58
			c0,0.55-0.45,1-1,1h-2.46c-0.55,0-1-0.45-1-1V48.79c0-0.55-0.04-1.45-0.08-2c0,0-0.24-3.01-0.87-4.03
			c-0.63-1.01-1.54-1.52-2.74-1.52c-0.97,0-1.79,0.26-2.46,0.77c-0.67,0.52-1.09,1.26-1.09,1.26c-0.27,0.48-0.49,1.32-0.49,1.87
			v15.4c0,0.55-0.45,1-1,1h-2.48c-0.55,0-1-0.45-1-1V39.28c0-0.55,0.45-1,1-1H123.96z"/>
		<path class="st3" d="M168.18,61.56c-0.55,0-1.11-0.44-1.25-0.97c0,0-0.09-0.36-0.2-0.91c-0.11-0.55-0.12-0.65-0.12-0.65
			c-0.05-0.55-0.35-0.63-0.66-0.18c0,0-0.89,1.28-1.92,2.03c-1.03,0.75-2.21,1.13-3.52,1.13c-2.12,0-3.75-0.62-4.88-1.85
			s-1.7-2.92-1.7-5.05c0-2.19,0.79-3.92,2.36-5.18c1.57-1.26,5.58-1.77,5.58-1.77c0.55-0.07,1.44-0.13,1.99-0.13h1.64
			c0.55,0,1-0.45,1-1v-0.39c0-0.55-0.06-1.45-0.13-1.99c0,0-0.2-1.54-0.84-2.33c-0.64-0.8-1.57-1.19-2.77-1.19
			c-1.08,0-1.94,0.34-2.58,1.03c-0.64,0.69-0.79,1.66-0.79,1.66c-0.09,0.54-0.61,0.99-1.16,0.99l-2.26,0.01
			c-0.55,0-1.01-0.02-1.02-0.06s0.06-0.51,0.16-1.05c0,0,0.45-2.42,1.97-3.79c1.52-1.38,3.51-2.06,5.97-2.06
			c2.36,0,4.27,0.68,5.73,2.03s2.03,4.81,2.03,4.81c0.09,0.54,0.16,1.44,0.16,1.99v8.8c0,0.55,0.01,1.45,0.03,2
			c0,0,0.02,0.75,0.14,1.59s0.3,1.52,0.3,1.52c0.14,0.53-0.2,0.97-0.75,0.97H168.18z M161.43,58.65c1.21,0,2.29-0.37,3.23-1.11
			c0.94-0.74,1.42-1.77,1.42-1.77c0.23-0.5,0.42-1.36,0.42-1.91v-2.13c0-0.55-0.45-1-1-1h-1.71c-0.55,0-1.44,0.08-1.99,0.17
			c0,0-1.47,0.26-2.24,1.11c-0.78,0.85-1.16,1.88-1.16,3.09c0,1.08,0.26,1.94,0.79,2.58C159.72,58.33,160.47,58.65,161.43,58.65z"/>
		<path class="st3" d="M185.12,50.43c0-0.12,0.05-0.67,0.1-1.22c0,0,0.59-5.72,1.98-7.97c1.39-2.25,3.34-3.38,5.86-3.38
			c1.13,0,2.14,0.25,3.03,0.74c0.89,0.49,1.65,1.38,1.65,1.38c0.36,0.42,0.65,0.31,0.65-0.24V29c0-0.55,0.45-1,1-1h2.46
			c0.55,0,1,0.45,1,1v31.55c0,0.55-0.45,1-1,1h-1.69c-0.55,0-1.07-0.44-1.16-0.99l-0.14-0.82c-0.09-0.54-0.44-0.63-0.78-0.2
			c0,0-0.85,1.08-1.8,1.63s-2.04,0.83-3.27,0.83c-2.5,0-4.45-1.04-5.83-3.11c-1.38-2.07-1.96-7.26-1.96-7.26
			C185.17,51.1,185.12,50.55,185.12,50.43z M189.55,50.43c0,0.12,0.04,0.67,0.09,1.22c0,0,0.29,3.38,1.03,4.82s1.91,2.16,3.49,2.16
			c1,0,1.84-0.26,2.54-0.77s1.19-1.34,1.19-1.34c0.28-0.47,0.51-1.31,0.51-1.86v-9.27c0-0.55-0.23-1.39-0.51-1.86
			c0,0-0.5-0.86-1.21-1.43c-0.7-0.57-1.54-0.85-2.5-0.85c-1.58,0-2.75,0.83-3.5,2.48s-1.05,5.47-1.05,5.47
			C189.59,49.75,189.55,50.3,189.55,50.43z"/>
		<path class="st3" d="M216.67,62.01c-2.96,0-5.27-1.06-6.95-3.18s-2.38-7.29-2.38-7.29c-0.07-0.54-0.13-1.22-0.13-1.5
			s0.06-0.95,0.13-1.5c0,0,0.7-5.22,2.37-7.41c1.67-2.19,3.85-3.28,6.54-3.28c2.71,0,4.77,0.94,6.18,2.82s2,6.58,2,6.58
			c0.07,0.55,0.12,1.44,0.12,1.99v0.45c0,0.55-0.45,1-1,1h-10.89c-0.55,0-0.95,0.45-0.9,0.99c0,0,0.33,3.31,1.21,4.79
			c0.87,1.48,2.21,2.22,4.01,2.22c1.24,0,2.33-0.19,3.25-0.57c0.92-0.38,1.76-1.05,1.76-1.05c0.43-0.34,1-0.22,1.26,0.26l0.51,0.95
			c0.26,0.49,0.12,1.16-0.31,1.51c0,0-1.05,0.85-2.35,1.39C219.8,61.74,218.32,62.01,216.67,62.01z M216.25,41.21
			c-1.29,0-2.31,0.58-3.07,1.75c-0.76,1.17-1.24,3.65-1.24,3.65c-0.1,0.54,0.26,0.98,0.81,0.98h6.41c0.55,0,1-0.11,1-0.25
			s-0.04-0.7-0.1-1.24c0,0-0.22-2.17-0.86-3.26S217.58,41.21,216.25,41.21z"/>
		<path class="st3" d="M85.48,91.9c0,0.55-0.45,1-1,1h-8.85c-0.55,0-1,0.45-1,1v9.23c0,0.55,0.45,1,1,1h10.78c0.55,0,1,0.45,1,1
			v1.31c0,0.55-0.45,1-1,1H71.18c-0.55,0-1-0.45-1-1V77.13c0-0.55,0.45-1,1-1H86.3c0.55,0,1,0.45,1,1v1.36c0,0.55-0.45,1-1,1H75.63
			c-0.55,0-1,0.45-1,1v8.09c0,0.55,0.45,1,1,1h8.85c0.55,0,1,0.45,1,1V91.9z"/>
		<path class="st3" d="M102.67,101.57c0-0.9-0.31-1.66-0.92-2.27c-0.61-0.61-1.79-1.29-3.53-2.05c-2.44-0.9-4.27-1.89-5.49-2.95
			c-1.21-1.06-1.82-2.42-1.82-4.09c0-1.79,0.74-3.32,2.21-4.58c1.47-1.26,3.38-1.89,5.74-1.89c2.44,0,4.41,0.69,5.91,2.08
			c1.49,1.38,1.97,4.04,1.97,4.04c0.1,0.54,0.17,1.01,0.16,1.05s-0.47,0.06-1.02,0.06h-2.3c-0.55,0-1.07-0.44-1.16-0.99
			c0,0-0.17-1.07-0.84-1.86s-1.57-1.19-2.71-1.19s-2.03,0.31-2.67,0.94s-0.96,1.35-0.96,2.18c0,0.89,0.27,1.59,0.82,2.1
			s1.72,1.17,3.52,1.97c2.49,0.86,4.36,1.86,5.61,2.99s1.88,2.55,1.88,4.26c0,1.94-0.76,3.51-2.27,4.72
			c-1.52,1.21-3.5,1.82-5.96,1.82c-2.66,0-4.76-0.73-6.29-2.18s-2.01-4.12-2.01-4.12c-0.1-0.54-0.17-1.01-0.15-1.05
			s0.47-0.06,1.02-0.06h2.15c0.55,0,1.08,0.44,1.19,0.98c0,0,0.31,1.61,1.12,2.28c0.81,0.67,1.83,1,3.04,1
			c1.19,0,2.11-0.3,2.78-0.89S102.67,102.49,102.67,101.57z"/>
		<path class="st3" d="M115.94,78.38c0.55,0,1,0.45,1,1v3.79c0,0.55,0.45,1,1,1h1.71c0.55,0,1,0.45,1,1v1.12c0,0.55-0.45,1-1,1
			h-1.71c-0.55,0-1,0.45-1,1v11.85c0,0.55,0.04,1.45,0.09,2c0,0,0.1,1.07,0.47,1.57c0.37,0.51,0.87,0.76,1.48,0.76
			c0.25,0,0.48-0.02,0.7-0.06c0.22-0.04,0.22-0.04,0.22-0.04c0.3-0.08,0.62,0.29,0.7,0.84l0.16,1.03c0.08,0.54-0.25,1.15-0.75,1.35
			c0,0,0,0-0.52,0.12s-1.06,0.18-1.61,0.18c-1.71,0-3.04-0.54-4-1.62c-0.95-1.08-1.31-4.14-1.31-4.14
			c-0.06-0.55-0.12-1.44-0.12-1.99V88.29c0-0.55-0.45-1-1-1h-1.14c-0.55,0-1-0.45-1-1v-1.12c0-0.55,0.45-1,1-1h1.14
			c0.55,0,1-0.45,1-1v-3.79c0-0.55,0.45-1,1-1H115.94z"/>
		<path class="st3" d="M123.79,95.84c0-0.16,0.06-0.74,0.13-1.28c0,0,0.7-5.3,2.37-7.5s3.96-3.31,6.87-3.31s5.21,1.1,6.88,3.31
			s2.38,7.5,2.38,7.5c0.07,0.55,0.13,1.12,0.13,1.28s-0.06,0.74-0.13,1.28c0,0-0.7,5.31-2.37,7.49s-3.95,3.28-6.85,3.28
			c-2.94,0-5.25-1.09-6.92-3.28s-2.37-7.49-2.37-7.49C123.85,96.58,123.79,96,123.79,95.84z M128.27,95.84
			c0,0.16,0.04,0.74,0.09,1.29c0,0,0.32,3.51,1.13,5.09c0.81,1.58,2.05,2.37,3.72,2.37c1.63,0,2.84-0.79,3.66-2.38
			c0.81-1.58,1.13-5.08,1.13-5.08c0.05-0.55,0.09-1.13,0.09-1.29s-0.04-0.74-0.09-1.29c0,0-0.32-3.46-1.14-5.06s-2.05-2.4-3.69-2.4
			s-2.86,0.8-3.68,2.4c-0.81,1.6-1.13,5.06-1.13,5.06C128.31,95.1,128.27,95.68,128.27,95.84z"/>
		<path class="st3" d="M145.99,96.31c0-0.12,0.05-0.67,0.1-1.22c0,0,0.59-5.72,1.98-7.98c1.39-2.25,3.34-3.38,5.86-3.38
			c1.2,0,2.26,0.27,3.18,0.82c0.92,0.54,1.72,1.54,1.72,1.54c0.34,0.43,0.7,0.34,0.8-0.2l0.13-0.74c0.1-0.54,0.63-0.98,1.18-0.98
			h1.67c0.55,0,1,0.45,1,1v30.22c0,0.55-0.45,1-1,1h-2.48c-0.55,0-1-0.45-1-1v-9.06c0-0.55-0.31-0.67-0.68-0.27
			c0,0-0.7,0.75-1.57,1.18c-0.87,0.43-1.87,0.65-3,0.65c-2.5,0-4.45-1.04-5.83-3.11s-1.96-7.26-1.96-7.26
			C146.04,96.99,145.99,96.44,145.99,96.31z M150.42,96.31c0,0.12,0.04,0.67,0.08,1.22c0,0,0.29,3.41,1.04,4.86
			c0.75,1.46,1.91,2.18,3.49,2.18c0.95,0,1.76-0.23,2.44-0.7c0.67-0.47,1.12-1.15,1.12-1.15c0.3-0.46,0.55-1.29,0.55-1.84v-9.98
			c0-0.55-0.24-1.38-0.53-1.85c0,0-0.45-0.71-1.13-1.22s-1.49-0.75-2.43-0.75c-1.58,0-2.75,0.84-3.5,2.51
			c-0.75,1.67-1.05,5.49-1.05,5.49C150.46,95.64,150.42,96.19,150.42,96.31z"/>
		<path class="st3" d="M181.86,105.04c-0.07-0.55-0.38-0.62-0.69-0.16c0,0-0.91,1.35-1.9,2.02c-1,0.67-2.15,1-3.47,1
			c-2.18,0-3.89-0.83-5.12-2.47c-1.23-1.65-1.74-6.68-1.74-6.68c-0.06-0.55-0.1-1.44-0.1-1.99V85.17c0-0.55,0.45-1,1-1h2.48
			c0.55,0,1,0.45,1,1v11.62c0,0.55,0.03,1.45,0.07,2c0,0,0.22,3.24,0.81,4.24c0.59,1,1.48,1.5,2.68,1.5c1.1,0,2.03-0.25,2.8-0.75
			c0.77-0.5,1.28-1.31,1.28-1.31c0.29-0.46,0.53-1.3,0.53-1.85V85.17c0-0.55,0.45-1,1-1h2.48c0.55,0,1,0.45,1,1v21.27
			c0,0.55-0.45,1-1,1h-1.8c-0.55,0-1.06-0.45-1.13-0.99L181.86,105.04z"/>
		<path class="st3" d="M199.67,107.9c-2.96,0-5.27-1.06-6.95-3.18s-2.38-7.29-2.38-7.29c-0.07-0.54-0.13-1.22-0.13-1.5
			s0.06-0.95,0.13-1.5c0,0,0.7-5.22,2.37-7.41s3.85-3.28,6.54-3.28c2.71,0,4.77,0.94,6.18,2.82c1.41,1.88,2,6.58,2,6.58
			c0.07,0.55,0.12,1.44,0.12,1.99v0.45c0,0.55-0.45,1-1,1h-10.89c-0.55,0-0.95,0.45-0.9,0.99c0,0,0.33,3.31,1.21,4.79
			c0.87,1.48,2.21,2.22,4.01,2.22c1.24,0,2.33-0.19,3.25-0.57c0.92-0.38,1.76-1.05,1.76-1.05c0.43-0.34,1-0.22,1.26,0.26l0.51,0.95
			c0.26,0.49,0.12,1.16-0.31,1.51c0,0-1.05,0.85-2.35,1.39C202.79,107.62,201.32,107.9,199.67,107.9z M199.25,87.1
			c-1.29,0-2.31,0.58-3.07,1.75s-1.24,3.65-1.24,3.65c-0.1,0.54,0.26,0.98,0.81,0.98h6.41c0.55,0,1-0.11,1-0.25s-0.04-0.7-0.1-1.24
			c0,0-0.22-2.17-0.86-3.26S200.58,87.1,199.25,87.1z"/>
	</g>
</g>
</svg>
