<?xml version="1.0" encoding="utf-8"?>
<!-- Generator: Adobe Illustrator 24.0.1, SVG Export Plug-In . SVG Version: 6.00 Build 0)  -->
<svg version="1.1" id="Layer_1" xmlns="http://www.w3.org/2000/svg" xmlns:xlink="http://www.w3.org/1999/xlink" x="0px" y="0px"
	 viewBox="0 0 328 140" style="enable-background:new 0 0 328 140;" xml:space="preserve">
<style type="text/css">
	.st0{fill:#00ACEE;}
	.st1{fill:#FFFFFF;}
</style>
<rect x="-0.22" y="-0.35" class="st0" width="328" height="140.58"/>
<g>
	<g>
		<path class="st1" d="M62,54.05c0.54-0.13,0.97,0.22,0.97,0.77v4.5c0,0.55,0.45,1,1,1h2.72c0.55,0,1,0.45,1,1v2.58
			c0,0.55-0.45,1-1,1h-2.72c-0.55,0-1,0.45-1,1v8.97c0,0.55,0.14,1.43,0.32,1.95c0,0,0.86,2.55,2.14,2.55
			c0.64,0,0.68-0.01,0.68-0.01c0.54-0.08,0.99,0.31,1,0.86l0.03,3.02c0.01,0.55-0.43,1.09-0.97,1.2c0,0-1.23,0.25-2.96,0.25
			c-1.87,0-3.49-0.44-4.63-1.53c-1.33-1.28-1.94-5.9-1.94-5.9c-0.07-0.55-0.13-1.44-0.13-1.99v-9.37c0-0.55-0.45-1-1-1h-0.85
			c-0.55,0-1-0.45-1-1v-2.58c0-0.55,0.45-1,1-1h0.85c0.55,0,1-0.45,1-1v-2.97c0-0.55,0.44-1.1,0.97-1.23L62,54.05z"/>
		<path class="st1" d="M74.57,60.32c0.55,0,1.06,0.45,1.12,0.99l1.04,8.4c0.07,0.55,0.18,1.44,0.25,1.98l0.61,5.3
			c0.06,0.55,0.14,0.99,0.18,0.99s0.15-0.44,0.25-0.98l0.96-5.22c0.1-0.54,0.28-1.42,0.38-1.96l1.72-8.52
			c0.11-0.54,0.65-0.98,1.2-0.98h2.97c0.55,0,1.09,0.44,1.2,0.98l1.67,8.27c0.11,0.54,0.28,1.42,0.38,1.96l0.89,5.46
			c0.08,0.54,0.19,0.99,0.23,0.99s0.12-0.45,0.17-1l0.61-5.39c0.07-0.55,0.2-1.44,0.28-1.98l1.19-8.3c0.08-0.54,0.59-0.99,1.14-0.99
			h4.35c0.55,0,0.89,0.44,0.75,0.97l-5.7,22.13c-0.14,0.53-0.7,0.97-1.25,0.97h-3.46c-0.55,0-1.1-0.44-1.21-0.98l-1.4-6.46
			c-0.12-0.54-0.3-1.42-0.4-1.96l-0.9-5.56c-0.08-0.54-0.16-0.99-0.19-0.99s-0.12,0.44-0.2,0.99l-1,5.61
			c-0.12,0.54-0.33,1.41-0.46,1.95l-1.59,6.42c-0.13,0.53-0.69,0.97-1.24,0.97h-3.51c-0.55,0-1.11-0.44-1.24-0.97l-5.43-22.12
			c-0.13-0.53,0.21-0.97,0.76-0.97H74.57z"/>
		<path class="st1" d="M107.46,53.92c0.05,2.07-1.43,3.49-3.4,3.49c-1.77,0-3.25-1.43-3.2-3.49c-0.05-2.17,1.53-3.49,3.3-3.49
			C106.03,50.43,107.46,51.75,107.46,53.92z M102.01,84.38c-0.55,0-1-0.45-1-1V61.32c0-0.55,0.45-1,1-1h4.45c0.55,0,1,0.45,1,1
			v22.06c0,0.55-0.45,1-1,1H102.01z"/>
		<path class="st1" d="M118.59,54.05c0.54-0.13,0.97,0.22,0.97,0.77v4.5c0,0.55,0.45,1,1,1h2.72c0.55,0,1,0.45,1,1v2.58
			c0,0.55-0.45,1-1,1h-2.72c-0.55,0-1,0.45-1,1v8.97c0,0.55,0.14,1.43,0.32,1.95c0,0,0.86,2.55,2.14,2.55
			c0.64,0,0.68-0.01,0.68-0.01c0.54-0.08,0.99,0.31,1,0.86l0.03,3.02c0.01,0.55-0.43,1.09-0.97,1.2c0,0-1.23,0.25-2.96,0.25
			c-1.87,0-3.49-0.44-4.63-1.53c-1.33-1.28-1.94-5.9-1.94-5.9c-0.07-0.55-0.13-1.44-0.13-1.99v-9.37c0-0.55-0.45-1-1-1h-0.85
			c-0.55,0-1-0.45-1-1v-2.58c0-0.55,0.45-1,1-1h0.85c0.55,0,1-0.45,1-1v-2.97c0-0.55,0.44-1.1,0.97-1.23L118.59,54.05z"/>
		<path class="st1" d="M133.89,54.05c0.54-0.13,0.97,0.22,0.97,0.77v4.5c0,0.55,0.45,1,1,1h2.72c0.55,0,1,0.45,1,1v2.58
			c0,0.55-0.45,1-1,1h-2.72c-0.55,0-1,0.45-1,1v8.97c0,0.55,0.14,1.43,0.32,1.95c0,0,0.86,2.55,2.14,2.55
			c0.64,0,0.68-0.01,0.68-0.01c0.54-0.08,0.99,0.31,1,0.86l0.03,3.02c0.01,0.55-0.43,1.09-0.97,1.2c0,0-1.23,0.25-2.96,0.25
			c-1.87,0-3.49-0.44-4.63-1.53c-1.33-1.28-1.94-5.9-1.94-5.9c-0.07-0.55-0.13-1.44-0.13-1.99v-9.37c0-0.55-0.45-1-1-1h-0.85
			c-0.55,0-1-0.45-1-1v-2.58c0-0.55,0.45-1,1-1h0.85c0.55,0,1-0.45,1-1v-2.97c0-0.55,0.44-1.1,0.97-1.23L133.89,54.05z"/>
		<path class="st1" d="M148.96,74.64c-0.55,0-0.82,0.41-0.6,0.91c0,0,1.86,4.2,4.71,4.2c1.82,0,3.62-0.51,3.62-0.51
			c0.53-0.15,1.05,0.17,1.15,0.71l0.51,2.66c0.1,0.54-0.25,1.09-0.78,1.23c0,0-3.22,0.83-5.68,0.83c-6.54,0-10.14-4.33-10.14-11.86
			c0-8.07,4.18-12.89,9.65-12.89c5.17,0,8.17,4.08,8.17,11.37c0,1.72-0.08,2.35-0.08,2.35c-0.07,0.55-0.57,0.99-1.12,0.99H148.96z
			 M152.71,70.11c0.55,0,0.94-0.45,0.86-0.99c0,0-0.65-4.52-2.56-4.52c-2.12,0-2.84,4.52-2.84,4.52c-0.09,0.54,0.29,0.99,0.84,0.99
			H152.71z"/>
		<path class="st1" d="M163.16,68.55c0-0.55-0.01-1.45-0.02-2L163,61.32c-0.02-0.55,0.41-1,0.96-1h3.61c0.55,0,1.04,0.45,1.1,1
			l0.15,1.5c0.05,0.55,0.13,1,0.17,1s0.35-0.36,0.68-0.79c0,0,2.39-3.1,4.16-3.1c0.64,0,0.64,0,0.64,0c0.41,0.05,0.74,0.55,0.74,1.1
			v4.4c0,0.55-0.38,0.96-0.84,0.9c0,0,0,0-0.54,0c-1.38,0-3.34,2.64-3.34,2.64c-0.33,0.44-0.65,1.11-0.72,1.49s-0.12,2.17-0.12,2.72
			v10.2c0,0.55-0.45,1-1,1h-4.5c-0.55,0-1-0.45-1-1V68.55z"/>
		<path class="st1" d="M198.73,82.99c0.06,0.55-0.32,1.13-0.85,1.29c0,0-1.31,0.4-3.13,0.4c-6.1,0-10.09-4.23-10.09-12.11
			c0-7.43,4.38-12.6,11.02-12.6c1.53,0,2.59,0.34,2.59,0.34c0.52,0.17,0.88,0.75,0.79,1.29l-0.51,3.1
			c-0.09,0.54-0.59,0.84-1.11,0.67c0,0-0.38-0.13-1.46-0.13c-3.1,0-4.92,2.95-4.92,7.13c0,4.38,1.82,7.04,4.82,7.04
			c0.94,0,1.46-0.18,1.46-0.18c0.52-0.17,1,0.13,1.05,0.68L198.73,82.99z"/>
		<path class="st1" d="M201.4,51.33c0-0.55,0.45-1,1-1h4.45c0.55,0,1,0.45,1,1v32.05c0,0.55-0.45,1-1,1h-4.45c-0.55,0-1-0.45-1-1
			V51.33z"/>
		<path class="st1" d="M230.04,72.27c0,10.04-5.56,12.5-9.2,12.5c-5.76,0-9.2-4.53-9.2-12.35c0-8.66,4.53-12.5,9.3-12.5
			C226.59,59.92,230.04,64.7,230.04,72.27z M218.03,72.27c0,4.13,0.64,7.58,2.95,7.58c2.07,0,2.61-4.04,2.61-7.58
			c0-3.3-0.54-7.48-2.71-7.48C218.52,64.79,218.03,68.98,218.03,72.27z"/>
		<path class="st1" d="M233.68,68.55c0-0.55-0.01-1.45-0.03-2l-0.12-5.24c-0.02-0.55,0.41-1,0.96-1h3.56c0.55,0,1.05,0.45,1.11,0.99
			l0.08,0.77c0.06,0.55,0.13,0.99,0.16,0.99s0.38-0.31,0.78-0.69c0,0,2.62-2.46,5.13-2.46c4.58,0,6.2,8.03,6.2,8.03
			c0.11,0.54,0.2,1.43,0.2,1.98v13.45c0,0.55-0.45,1-1,1h-4.45c-0.55,0-1-0.45-1-1V70.32c0-0.55-0.06-1.45-0.12-1.99
			c0,0-0.37-2.99-2.24-2.99c-1.08,0-1.89,1.31-1.89,1.31c-0.29,0.47-0.6,1.14-0.7,1.49s-0.17,2.02-0.17,2.57v12.66
			c0,0.55-0.45,1-1,1h-4.45c-0.55,0-1-0.45-1-1V68.55z"/>
		<path class="st1" d="M262.58,74.64c-0.55,0-0.82,0.41-0.6,0.91c0,0,1.86,4.2,4.71,4.2c1.82,0,3.62-0.51,3.62-0.51
			c0.53-0.15,1.05,0.17,1.15,0.71l0.51,2.66c0.1,0.54-0.25,1.09-0.78,1.23c0,0-3.22,0.83-5.68,0.83c-6.54,0-10.14-4.33-10.14-11.86
			c0-8.07,4.18-12.89,9.65-12.89c5.17,0,8.17,4.08,8.17,11.37c0,1.72-0.08,2.35-0.08,2.35c-0.07,0.55-0.57,0.99-1.12,0.99H262.58z
			 M266.34,70.11c0.55,0,0.94-0.45,0.86-0.99c0,0-0.65-4.52-2.56-4.52c-2.12,0-2.84,4.52-2.84,4.52c-0.09,0.54,0.29,0.99,0.84,0.99
			H266.34z"/>
	</g>
</g>
</svg>
