<?xml version="1.0" encoding="utf-8"?>
<!-- Generator: Adobe Illustrator 24.0.1, SVG Export Plug-In . SVG Version: 6.00 Build 0)  -->
<svg version="1.1" id="Layer_1" xmlns="http://www.w3.org/2000/svg" xmlns:xlink="http://www.w3.org/1999/xlink" x="0px" y="0px"
	 viewBox="0 0 328 140" style="enable-background:new 0 0 328 140;" xml:space="preserve">
<style type="text/css">
	.st0{fill:#7435D8;}
	.st1{fill:#FFFFFF;stroke:#000000;stroke-miterlimit:10;}
	.st2{fill:#FFFFFF;}
</style>
<rect class="st0" width="328" height="140"/>
<g>
	<g>
		<path class="st1" d="M47.67,83.98c-1.1,0-2.18-0.88-2.39-1.96l-5.65-28.2c-0.22-1.08,0.51-1.96,1.61-1.96h3.62
			c1.1,0,2.13,0.89,2.29,1.98l1.28,8.86c0.16,1.09,0.39,2.87,0.51,3.97l0.85,7.27c0.11,1.09,0.24,1.99,0.29,1.99
			s0.24-0.89,0.44-1.97l1.34-7.37c0.24-1.07,0.62-2.83,0.84-3.91l1.86-8.86c0.23-1.08,1.31-1.96,2.41-1.96h1.94
			c1.1,0,2.18,0.88,2.39,1.96l1.74,8.75c0.21,1.08,0.56,2.85,0.76,3.93l1.14,7.44c0.16,1.09,0.31,1.98,0.34,1.98s0.17-0.89,0.3-1.98
			l0.94-7.37c0.15-1.09,0.39-2.87,0.55-3.96l1.27-8.76c0.16-1.09,1.19-1.98,2.29-1.98h3.17c1.1,0,1.82,0.88,1.59,1.96l-5.85,28.2
			c-0.22,1.08-1.31,1.96-2.41,1.96h-3.56c-1.1,0-2.19-0.88-2.42-1.96l-1.41-6.62c-0.23-1.08-0.57-2.84-0.77-3.93l-1.05-6.58
			c-0.15-1.09-0.3-1.98-0.33-1.98s-0.21,0.89-0.4,1.97l-1.32,6.65c-0.22,1.08-0.62,2.83-0.88,3.9l-1.59,6.59
			c-0.26,1.07-1.37,1.94-2.47,1.94H47.67z"/>
		<path class="st1" d="M87.22,74.55c-1.1,0-1.58,0.8-1.08,1.77c0,0,1.65,3.18,4.9,3.18c2.07,0,3.27-0.29,3.27-0.29
			c1.07-0.26,2.14,0.41,2.38,1.48l0.13,0.58c0.24,1.07-0.44,2.14-1.51,2.38c0,0-2.81,0.62-5.61,0.62c-7.45,0-11.54-4.19-11.54-11.49
			c0-7.81,4.76-12.48,10.98-12.48c5.88,0,9.3,3.96,9.3,11.01c0,1.67,0,1.67,0,1.67c-0.12,0.86-1.12,1.57-2.22,1.57H87.22z
			 M89.77,70.17c1.1,0,1.85-0.89,1.67-1.97c0,0-0.57-3.37-2.75-3.37c-2.41,0-3.05,3.37-3.05,3.37c-0.2,1.08,0.53,1.97,1.63,1.97
			H89.77z"/>
		<path class="st1" d="M116.85,83.98c-1.1,0-2.09-0.51-2.2-1.14s-0.22-1.14-0.25-1.14s-0.78,0.53-1.67,1.18c0,0-2.03,1.49-4.44,1.49
			c-4.15,0-7.23-2.95-7.23-7.1c0-6.1,10.59-8.27,10.59-8.27c1.08-0.22,1.96-0.52,1.96-0.66s-0.34-1.09-0.76-2.11
			c0,0-0.53-1.29-3.11-1.29c-2.18,0-3.74,0.61-3.74,0.61c-1.02,0.4-2.14-0.13-2.47-1.18l-0.12-0.38c-0.34-1.05,0.23-2.22,1.26-2.61
			c0,0,2.83-1.06,6.64-1.06c8.35,0,9.42,7.69,9.42,7.69c0.15,1.09,0.28,2.88,0.28,3.98v4.67c0,1.1,0.03,2.85,0.06,3.88
			s-0.51,3.45-1.61,3.45H116.85z M113.84,74.64c0-1.1-0.89-1.89-1.99-1.76c0,0-3.84,0.47-3.84,3.71c0,2.33,1.51,3.19,2.63,3.19
			c1.18,0,1.67-0.53,1.67-0.53c0.75-0.81,1.39-1.63,1.44-1.83s0.08-1.64,0.08-2.74V74.64z"/>
		<path class="st1" d="M132.88,54.79c1.08-0.22,1.96,0.51,1.96,1.61v2.29c0,1.1,0.9,2,2,2h1.38c1.1,0,2,0.9,2,2v0.43
			c0,1.1-0.9,2-2,2h-1.38c-1.1,0-2,0.9-2,2v6.63c0,1.1,0.33,2.84,0.74,3.86c0,0,0.61,1.53,2.06,1.53c0.73,0,0.73,0,0.73,0
			c0.65-0.08,1.19,0.76,1.2,1.86l0.01,0.86c0.01,1.1-0.86,2.15-1.95,2.34c0,0-0.55,0.09-2.51,0.09c-2.13,0-3.98-0.43-5.27-1.48
			c-1.51-1.24-2.05-4.69-2.05-4.69c-0.17-1.09-0.31-2.88-0.31-3.98v-7.01c0-1.1-0.73-2-1.62-2s-1.62-0.9-1.62-2v-0.43
			c0-1.1,0.73-2,1.62-2s1.62-0.9,1.62-2v-0.81c0-1.1,0.88-2.18,1.96-2.39L132.88,54.79z"/>
		<path class="st1" d="M143.64,53.01c0-1.1,0.9-2,2-2h3.34c1.1,0,2,0.9,2,2v8.1c0,1.1,0.03,2,0.06,2s0.69-0.64,1.46-1.42
			c0,0,0.05-0.05,0.95-0.58c1.06-0.52,2.35-0.81,3.7-0.81c5.04,0,6.6,7.57,6.6,7.57c0.22,1.08,0.4,2.86,0.4,3.96v10.15
			c0,1.1-0.9,2-2,2h-3.34c-1.1,0-2-0.9-2-2V71.83c0-1.1-0.11-2.89-0.23-3.99c0,0-0.27-2.3-2.46-2.3c-1.23,0-1.67,0.59-1.67,0.59
			c-0.65,0.88-1.25,1.89-1.33,2.23s-0.14,2.04-0.14,3.14v10.49c0,1.1-0.9,2-2,2h-3.34c-1.1,0-2-0.9-2-2V53.01z"/>
		<path class="st1" d="M177.4,74.55c-1.1,0-1.58,0.8-1.08,1.77c0,0,1.65,3.18,4.9,3.18c2.07,0,3.27-0.29,3.27-0.29
			c1.07-0.26,2.14,0.41,2.38,1.48l0.13,0.58c0.24,1.07-0.44,2.14-1.51,2.38c0,0-2.81,0.62-5.61,0.62c-7.45,0-11.54-4.19-11.54-11.49
			c0-7.81,4.76-12.48,10.98-12.48c5.88,0,9.3,3.96,9.3,11.01c0,1.67,0,1.67,0,1.67c-0.12,0.86-1.12,1.57-2.22,1.57H177.4z
			 M179.95,70.17c1.1,0,1.85-0.89,1.67-1.97c0,0-0.57-3.37-2.75-3.37c-2.41,0-3.05,3.37-3.05,3.37c-0.2,1.08,0.53,1.97,1.63,1.97
			H179.95z"/>
		<path class="st1" d="M192.71,69.69c0-1.1-0.02-2.9-0.05-4l-0.08-3.01c-0.05-1.1,0.8-2,1.9-2h2.39c1.1,0,2.09,0.76,2.2,1.69
			s0.23,1.69,0.28,1.69s0.69-0.67,1.43-1.48c0,0,2.07-2.28,4.09-2.28c0.73,0,0.73,0,0.73,0c0.46,0.05,0.84,1,0.84,2.1v2.19
			c0,1.1-0.43,1.96-0.95,1.9c0,0,0,0-0.62,0c-1.57,0-3.17,1.83-3.17,1.83c-0.72,0.83-1.38,1.81-1.46,2.17s-0.14,2.57-0.14,3.67v7.82
			c0,1.1-0.9,2-2,2h-3.39c-1.1,0-2-0.9-2-2V69.69z"/>
		<path class="st1" d="M226.8,76.65c-1.1,0-2.2,0.88-2.45,1.95l-0.79,3.44c-0.25,1.07-1.35,1.95-2.45,1.95h-3.11
			c-1.1,0-1.78-0.87-1.51-1.94l7.19-28.24c0.27-1.07,1.39-1.94,2.49-1.94h4.79c1.1,0,2.2,0.88,2.45,1.95l6.45,28.22
			c0.25,1.07-0.45,1.95-1.55,1.95h-3.11c-1.1,0-2.19-0.88-2.43-1.95l-0.76-3.43c-0.24-1.07-1.33-1.95-2.43-1.95H226.8z
			 M228.91,71.79c1.1,0,1.84-0.89,1.64-1.97l-0.51-2.78c-0.2-1.08-0.52-2.85-0.7-3.94l-0.58-3.34c-0.17-1.09-0.35-1.98-0.39-1.98
			s-0.24,0.89-0.43,1.97l-0.64,3.4c-0.2,1.08-0.55,2.85-0.77,3.92l-0.58,2.76c-0.23,1.08,0.49,1.96,1.59,1.96H228.91z"/>
		<path class="st1" d="M243.74,70.07c0-1.1-0.02-2.9-0.04-4l-0.08-3.39c-0.05-1.1,0.8-2,1.9-2h2.39c1.1,0,2.09,0.6,2.2,1.33
			s0.22,1.33,0.25,1.33s0.71-0.62,1.5-1.38c0,0,1.75-1.67,4.27-1.67c6.05,0,8.51,5.53,8.51,12.01c0,8.29-4.31,12.06-8.91,12.06
			c-2.24,0-3.12-0.88-3.12-0.88c-0.78-0.78-1.44-1.41-1.47-1.41s-0.06,0.9-0.06,2v7.06c0,1.1-0.9,2-2,2h-3.34c-1.1,0-2-0.9-2-2
			V70.07z M251.07,73.46c0,1.1,0.03,2.34,0.06,2.76s0.91,1.93,1.62,2.77c0,0,0.23,0.28,1.07,0.28c2.58,0,3.47-3.24,3.47-6.91
			c0-4.43-1.23-6.81-3.42-6.81c-1.12,0-2.18,0.91-2.46,2c-0.28,0.48-0.28,0.48-0.28,0.48c-0.03,0.66-0.06,2.09-0.06,3.19V73.46z"/>
		<path class="st1" d="M268.77,70.07c0-1.1-0.02-2.9-0.04-4l-0.08-3.39c-0.05-1.1,0.8-2,1.9-2h2.39c1.1,0,2.09,0.6,2.2,1.33
			s0.22,1.33,0.25,1.33s0.71-0.62,1.5-1.38c0,0,1.75-1.67,4.27-1.67c6.05,0,8.51,5.53,8.51,12.01c0,8.29-4.31,12.06-8.91,12.06
			c-2.24,0-3.12-0.88-3.12-0.88c-0.78-0.78-1.44-1.41-1.47-1.41s-0.06,0.9-0.06,2v7.06c0,1.1-0.9,2-2,2h-3.34c-1.1,0-2-0.9-2-2
			V70.07z M276.11,73.46c0,1.1,0.03,2.34,0.06,2.76s0.91,1.93,1.62,2.77c0,0,0.23,0.28,1.07,0.28c2.58,0,3.47-3.24,3.47-6.91
			c0-4.43-1.23-6.81-3.42-6.81c-1.12,0-2.18,0.91-2.46,2c-0.28,0.48-0.28,0.48-0.28,0.48c-0.03,0.66-0.06,2.09-0.06,3.19V73.46z"/>
	</g>
</g>
<g>
	<path class="st2" d="M328,17.38v19.88c-5.49,1.34-12.81,2.1-20.83,1.96c-2.56-0.04-5.04-0.18-7.41-0.39
		c-0.01,0.01-0.01,0.01-0.02,0c-4.31,0.58-9.23,0.87-14.44,0.78c-9.75-0.17-18.43-1.61-24.02-3.72c-2.2,0.62-4.71,0.95-7.37,0.9
		c-8.67-0.15-15.64-4.19-15.56-9.04c0.08-4.84,7.18-8.65,15.86-8.51c1.35,0.02,2.67,0.14,3.92,0.34c5.09-2.79,15.54-4.59,27.58-4.38
		c2.55,0.04,5.03,0.17,7.4,0.39c0.01,0,0.02,0,0.02,0c4.32-0.58,9.23-0.87,14.45-0.78C315.43,14.94,322.59,15.9,328,17.38z"/>
</g>
<g>
	<path class="st2" d="M0,110.79l0,19.88c5.49,1.34,12.81,2.1,20.83,1.96c2.56-0.04,5.04-0.18,7.41-0.39c0.01,0.01,0.01,0.01,0.02,0
		c4.31,0.58,9.23,0.87,14.44,0.78c9.75-0.17,18.43-1.61,24.02-3.72c2.2,0.62,4.71,0.95,7.37,0.9c8.67-0.15,15.64-4.19,15.56-9.04
		c-0.08-4.84-7.18-8.65-15.86-8.51c-1.35,0.02-2.67,0.14-3.92,0.34c-5.09-2.79-15.54-4.59-27.58-4.38c-2.55,0.04-5.03,0.17-7.4,0.39
		c-0.01,0-0.02,0-0.02,0c-4.32-0.58-9.23-0.87-14.45-0.78C12.57,108.35,5.41,109.31,0,110.79z"/>
</g>
</svg>
