<?xml version="1.0" encoding="utf-8"?>
<!-- Generator: Adobe Illustrator 24.0.1, SVG Export Plug-In . SVG Version: 6.00 Build 0)  -->
<svg version="1.1" id="Layer_1" xmlns="http://www.w3.org/2000/svg" xmlns:xlink="http://www.w3.org/1999/xlink" x="0px" y="0px"
	 viewBox="0 0 328 140" style="enable-background:new 0 0 328 140;" xml:space="preserve">
<style type="text/css">
	.st0{fill:#25D366;}
	.st1{fill:#FFFFFF;}
</style>
<rect x="-0.71" y="-0.25" class="st0" width="328.5" height="140"/>
<g>
	<g>
		<g>
			<g>
				<path d="M49.05,83.25c-0.55,0-1.05-0.45-1.12-0.99l-3.54-29.01c-0.07-0.55,0.33-0.99,0.88-0.99h2.48c0.55,0,1.04,0.45,1.09,1
					l0.91,10.38c0.05,0.55,0.12,1.45,0.16,1.99l0.62,8.86c0.03,0.55,0.09,1,0.11,1s0.1-0.45,0.16-0.99l1.01-8.91
					c0.07-0.55,0.19-1.44,0.26-1.98l1.33-10.34c0.07-0.55,0.58-0.99,1.13-0.99H56c0.55,0,1.05,0.45,1.12,0.99l1.24,10.25
					c0.07,0.55,0.17,1.44,0.23,1.99l0.85,9c0.05,0.55,0.1,1,0.12,1s0.07-0.45,0.11-1l0.7-8.95c0.04-0.55,0.12-1.44,0.17-1.99
					l0.91-10.29c0.05-0.55,0.54-1,1.09-1h2.21c0.55,0,0.94,0.45,0.87,0.99l-3.67,29.01c-0.07,0.55-0.58,0.99-1.13,0.99H58.4
					c-0.55,0-1.06-0.45-1.13-0.99l-1.06-8.18c-0.07-0.55-0.18-1.44-0.24-1.99l-0.8-8.17c-0.05-0.55-0.1-1-0.12-1
					s-0.08,0.45-0.14,0.99l-0.99,8.22c-0.07,0.55-0.19,1.44-0.27,1.98l-1.19,8.14c-0.08,0.54-0.59,0.99-1.14,0.99H49.05z"/>
				<path d="M67.7,52.42c0-0.55,0.45-1,1-1h2.31c0.55,0,1,0.45,1,1v9.68c0,0.55,0.01,1,0.03,1s0.26-0.39,0.55-0.86
					c0,0,0.34-0.57,0.87-1.07c0.63-0.51,1.38-0.78,2.17-0.78c2.96,0,3.99,8.21,3.99,8.21c0.07,0.55,0.12,1.44,0.12,1.99v11.66
					c0,0.55-0.45,1-1,1h-2.31c-0.55,0-1-0.45-1-1V70.59c0-0.55-0.03-1.45-0.07-2c0,0-0.22-3.14-1.51-3.14c-0.72,0-1.27,1.2-1.27,1.2
					c-0.23,0.5-0.45,1.18-0.49,1.51s-0.08,1.55-0.08,2.1v11.98c0,0.55-0.45,1-1,1H68.7c-0.55,0-1-0.45-1-1V52.42z"/>
				<path d="M91,83.25c-0.55,0-1.05-0.45-1.1-0.99l-0.02-0.22c-0.06-0.55-0.12-0.99-0.14-0.99s-0.32,0.35-0.67,0.77
					c0,0-1.5,1.81-2.92,1.81c-2.44,0-4.25-2.85-4.25-6.85c0-5.89,6.43-8.05,6.43-8.05c0.52-0.18,0.95-0.43,0.95-0.57
					s-0.11-0.69-0.24-1.22c0,0-0.52-2.06-2.03-2.06c-1.28,0-2.45,0.75-2.45,0.75c-0.46,0.3-0.93,0.1-1.03-0.44l-0.41-2.08
					c-0.11-0.54,0.19-1.22,0.66-1.51c0,0,1.91-1.18,4.15-1.18c4.91,0,5.61,8.34,5.61,8.34c0.05,0.55,0.08,1.45,0.08,2v6.37
					c0,0.55,0.01,1.45,0.02,2l0.17,3.15c0.04,0.55-0.37,1-0.92,1H91z M89.4,73.3c0-0.55-0.44-0.91-0.98-0.8c0,0-2.44,0.49-2.44,3.62
					c0,2.25,0.89,3.08,1.55,3.08c0.69,0,1.29-1.06,1.29-1.06c0.27-0.48,0.51-1.03,0.54-1.22s0.05-1.16,0.05-1.71V73.3z"/>
				<path d="M100.8,55c0.52-0.17,0.95,0.14,0.95,0.69v4.07c0,0.55,0.45,1,1,1h1.16c0.55,0,1,0.45,1,1v2.28c0,0.55-0.45,1-1,1h-1.16
					c-0.55,0-1,0.45-1,1v8.26c0,0.55,0.11,1.44,0.24,1.97c0,0,0.56,2.29,1.41,2.29c0.43,0,0.43,0,0.43,0
					c0.38-0.08,0.69,0.31,0.7,0.86l0.02,2.69c0,0.55-0.43,1.12-0.96,1.27c0,0-0.52,0.14-1.67,0.14c-1.25,0-2.34-0.41-3.1-1.43
					c-0.89-1.2-1.29-5.44-1.29-5.44c-0.05-0.55-0.09-1.45-0.09-2v-8.62c0-0.55-0.43-1-0.95-1s-0.95-0.45-0.95-1v-2.28
					c0-0.55,0.43-1,0.95-1s0.95-0.45,0.95-1v-2.64c0-0.55,0.43-1.14,0.95-1.31L100.8,55z"/>
				<path d="M106.61,78.81c0.1-0.54,0.55-0.74,1.01-0.43c0,0,0.98,0.65,2.06,0.65c1.12,0,1.75-0.69,1.75-2.02
					c0-1.15-1.17-2.33-1.17-2.33c-0.39-0.39-0.97-1.07-1.3-1.51c0,0-2.67-3.61-2.67-5.68c0-4.05,2.07-7.08,5.3-7.08
					c1.35,0,2.38,0.54,2.38,0.54c0.49,0.26,0.81,0.91,0.71,1.45l-0.42,2.44c-0.09,0.54-0.54,0.74-1,0.43c0,0-0.55-0.37-1.41-0.37
					c-1.09,0-1.61,0.92-1.61,1.93s1.15,2.11,1.15,2.11c0.4,0.38,1,1.05,1.33,1.48c0,0,2.65,3.44,2.65,6.01c0,4.6-2.37,7.08-5.7,7.08
					c-1.35,0-2.81-0.81-2.81-0.81c-0.48-0.27-0.8-0.93-0.7-1.47L106.61,78.81z"/>
				<path d="M122.51,76.17c-0.55,0-1.06,0.45-1.14,0.99l-0.71,5.1c-0.08,0.54-0.59,0.99-1.14,0.99h-2.18
					c-0.55,0-0.93-0.44-0.85-0.99l4.5-29.02c0.08-0.54,0.6-0.99,1.15-0.99h3.17c0.55,0,1.06,0.45,1.14,0.99l4.04,29.02
					c0.08,0.54-0.31,0.99-0.86,0.99h-2.18c-0.55,0-1.06-0.45-1.13-0.99l-0.69-5.1c-0.07-0.55-0.58-0.99-1.13-0.99H122.51z
					 M124.1,71.48c0.55,0,0.95-0.45,0.89-0.99l-0.5-4.5c-0.06-0.55-0.16-1.44-0.22-1.99l-0.52-5.05c-0.05-0.55-0.12-1-0.14-1
					s-0.1,0.45-0.15,0.99l-0.57,5.09c-0.06,0.55-0.17,1.44-0.24,1.99l-0.57,4.45c-0.07,0.55,0.32,0.99,0.87,0.99H124.1z"/>
				<path d="M132.64,68.89c0-0.55-0.01-1.45-0.01-2l-0.09-5.13c-0.02-0.55,0.42-1,0.97-1h1.75c0.55,0,1.04,0.45,1.09,1l0.05,0.58
					c0.05,0.55,0.1,1,0.12,1s0.27-0.38,0.57-0.84c0,0,1.34-2.1,2.82-2.1c3.56,0,5.01,5.33,5.01,11.59c0,8-2.54,11.64-5.24,11.64
					c-1.32,0-2.15-1.35-2.15-1.35c-0.29-0.47-0.54-0.85-0.55-0.85s-0.03,0.45-0.03,1v8.67c0,0.55-0.45,1-1,1h-2.31
					c-0.55,0-1-0.45-1-1V68.89z M136.95,74.02c0,0.55,0.01,1.33,0.03,1.74s0.4,1.6,0.65,2.09c0,0,0.44,0.86,0.93,0.86
					c1.52,0,2.04-3.13,2.04-6.67c0-4.28-0.72-6.58-2.01-6.58c-0.66,0-1.28,0.87-1.45,1.93c-0.17,0.46-0.17,0.61-0.17,0.61
					c-0.02,0.55-0.03,1.45-0.03,2V74.02z"/>
				<path d="M147.36,68.89c0-0.55-0.01-1.45-0.01-2l-0.09-5.13c-0.02-0.55,0.42-1,0.97-1h1.75c0.55,0,1.04,0.45,1.09,1l0.05,0.58
					c0.05,0.55,0.1,1,0.12,1s0.27-0.38,0.57-0.84c0,0,1.34-2.1,2.82-2.1c3.56,0,5.01,5.33,5.01,11.59c0,8-2.54,11.64-5.24,11.64
					c-1.32,0-2.15-1.35-2.15-1.35c-0.29-0.47-0.54-0.85-0.55-0.85s-0.03,0.45-0.03,1v8.67c0,0.55-0.45,1-1,1h-2.31
					c-0.55,0-1-0.45-1-1V68.89z M151.67,74.02c0,0.55,0.01,1.33,0.03,1.74s0.4,1.6,0.65,2.09c0,0,0.44,0.86,0.93,0.86
					c1.52,0,2.04-3.13,2.04-6.67c0-4.28-0.72-6.58-2.01-6.58c-0.66,0-1.28,0.87-1.45,1.93c-0.17,0.46-0.17,0.61-0.17,0.61
					c-0.02,0.55-0.03,1.45-0.03,2V74.02z"/>
				<path d="M171.04,83.25c-0.55,0-1.05-0.45-1.12-0.99l-3.54-29.01c-0.07-0.55,0.33-0.99,0.88-0.99h2.48c0.55,0,1.04,0.45,1.09,1
					l0.91,10.38c0.05,0.55,0.12,1.45,0.16,1.99l0.62,8.86c0.03,0.55,0.09,1,0.11,1s0.1-0.45,0.16-0.99l1.01-8.91
					c0.07-0.55,0.19-1.44,0.26-1.98l1.33-10.34c0.07-0.55,0.58-0.99,1.13-0.99H178c0.55,0,1.05,0.45,1.12,0.99l1.24,10.25
					c0.07,0.55,0.17,1.44,0.23,1.99l0.85,9c0.05,0.55,0.1,1,0.12,1s0.07-0.45,0.11-1l0.7-8.95c0.04-0.55,0.12-1.44,0.17-1.99
					l0.91-10.29c0.05-0.55,0.54-1,1.09-1h2.21c0.55,0,0.94,0.45,0.87,0.99l-3.67,29.01c-0.07,0.55-0.58,0.99-1.13,0.99h-2.45
					c-0.55,0-1.06-0.45-1.13-0.99l-1.06-8.18c-0.07-0.55-0.18-1.44-0.24-1.99l-0.79-8.17c-0.05-0.55-0.1-1-0.12-1
					s-0.08,0.45-0.14,0.99l-0.99,8.22c-0.07,0.55-0.19,1.44-0.27,1.98l-1.19,8.14c-0.08,0.54-0.59,0.99-1.14,0.99H171.04z"/>
				<path d="M194.29,74.14c-0.55,0-0.86,0.43-0.7,0.95c0,0,1.21,3.83,3.12,3.83c1.22,0,2.13-0.36,2.13-0.36
					c0.51-0.2,0.99,0.08,1.06,0.62l0.32,2.34c0.07,0.54-0.29,1.14-0.8,1.33c0,0-1.86,0.67-3.5,0.67c-4.38,0-6.78-4.05-6.78-11.08
					c0-7.54,2.8-12.05,6.45-12.05c3.46,0,5.47,3.82,5.47,10.62c0,1.61-0.05,2.13-0.05,2.13c-0.05,0.55-0.54,1-1.09,1H194.29z
					 M196.15,69.91c0.55,0,0.95-0.45,0.9-0.99c0,0-0.43-4.16-1.71-4.16c-1.42,0-1.89,4.16-1.89,4.16c-0.06,0.55,0.34,0.99,0.89,0.99
					H196.15z"/>
				<path d="M204.33,83.25c-0.55,0-0.99-0.45-0.97-1l0.09-4.67c0.01-0.55,0.01-1.45,0.01-2V52.42c0-0.55,0.45-1,1-1h2.31
					c0.55,0,1,0.45,1,1v9.59c0,0.55,0.01,1,0.03,1s0.29-0.37,0.6-0.82c0,0,1.24-1.8,2.79-1.8c3.13,0,4.54,4.92,4.54,10.99
					c0,7.86-2.24,12.23-5.24,12.23c-1.35,0-2.65-2.18-2.65-2.18c-0.28-0.47-0.53-0.86-0.56-0.86s-0.09,0.45-0.14,1l-0.06,0.67
					c-0.05,0.55-0.54,1-1.09,1H204.33z M207.78,74.2c0,0.55,0.01,1.25,0.03,1.55s0.32,1.28,0.55,1.78c0,0,0.54,1.16,1.06,1.16
					c1.45,0,2.04-2.53,2.04-6.85c0-3.86-0.63-6.39-2.07-6.39c-0.66,0-1.09,1.14-1.09,1.14c-0.2,0.51-0.39,1.15-0.44,1.42
					s-0.08,1.35-0.08,1.9V74.2z"/>
				<path d="M234.4,81.79c0.05,0.55-0.33,1.16-0.84,1.37c0,0-0.92,0.37-2.43,0.37c-5.66,0-8.36-6.53-8.36-15.31
					c0-11.68,4.64-16.23,8.96-16.23c1.52,0,2.12,0.34,2.12,0.34c0.48,0.27,0.81,0.93,0.73,1.48l-0.44,3.08
					c-0.08,0.54-0.53,0.77-1.01,0.5c0,0-0.18-0.1-1.14-0.1c-2.44,0-4.64,2.94-4.64,10.62c0,7.4,2.01,10.3,4.64,10.3
					c0.72,0,1.13-0.14,1.13-0.14c0.52-0.18,0.98,0.13,1.03,0.67L234.4,81.79z"/>
				<path d="M236.46,52.42c0-0.55,0.45-1,1-1h2.31c0.55,0,1,0.45,1,1v29.83c0,0.55-0.45,1-1,1h-2.31c-0.55,0-1-0.45-1-1V52.42z"/>
				<path d="M255.63,71.94c0,9.38-3.72,11.68-6.16,11.68c-3.85,0-6.16-4.23-6.16-11.54c0-8.09,3.03-11.68,6.22-11.68
					C253.32,60.39,255.63,64.85,255.63,71.94z M247.59,71.94c0,3.86,0.43,7.08,1.98,7.08c1.38,0,1.75-3.77,1.75-7.08
					c0-3.08-0.36-6.99-1.81-6.99C247.92,64.95,247.59,68.86,247.59,71.94z"/>
				<path d="M258.06,68.52c0-0.55-0.01-1.45-0.02-2l-0.08-4.76c-0.02-0.55,0.42-1,0.97-1h1.72c0.55,0,1.03,0.45,1.08,1l0.04,0.58
					c0.04,0.55,0.09,1,0.11,1s0.31-0.36,0.64-0.8c0,0,1.63-2.15,3.31-2.15c3.06,0,4.14,7.43,4.14,7.43
					c0.08,0.54,0.14,1.44,0.14,1.99v12.44c0,0.55-0.45,1-1,1h-2.31c-0.55,0-1-0.45-1-1V70.18c0-0.55-0.04-1.45-0.09-2
					c0,0-0.24-2.73-1.49-2.73c-0.72,0-1.21,1.11-1.21,1.11c-0.22,0.5-0.45,1.18-0.52,1.51s-0.12,1.92-0.12,2.47v11.71
					c0,0.55-0.45,1-1,1h-2.31c-0.55,0-1-0.45-1-1V68.52z"/>
				<path d="M277.73,74.14c-0.55,0-0.86,0.43-0.7,0.95c0,0,1.21,3.83,3.12,3.83c1.22,0,2.13-0.36,2.13-0.36
					c0.51-0.2,0.99,0.08,1.06,0.62l0.32,2.34c0.07,0.54-0.29,1.14-0.8,1.33c0,0-1.86,0.67-3.5,0.67c-4.38,0-6.78-4.05-6.78-11.08
					c0-7.54,2.8-12.05,6.45-12.05c3.46,0,5.47,3.82,5.47,10.62c0,1.61-0.05,2.13-0.05,2.13c-0.05,0.55-0.54,1-1.09,1H277.73z
					 M279.58,69.91c0.55,0,0.95-0.45,0.9-0.99c0,0-0.43-4.16-1.71-4.16c-1.42,0-1.89,4.16-1.89,4.16c-0.06,0.55,0.34,0.99,0.89,0.99
					H279.58z"/>
			</g>
		</g>
		<g>
			<g>
				<path class="st1" d="M48.09,82.69c-0.55,0-1.06-0.45-1.12-0.99l-3.54-28.12c-0.07-0.55,0.33-0.99,0.88-0.99h2.48
					c0.55,0,1.04,0.45,1.09,1l0.91,10.02c0.05,0.55,0.12,1.44,0.16,1.99l0.62,8.54c0.04,0.55,0.09,1,0.11,1s0.1-0.45,0.16-0.99
					l1-8.6c0.08-0.54,0.2-1.44,0.27-1.98l1.32-9.99c0.07-0.55,0.58-0.99,1.13-0.99h1.49c0.55,0,1.06,0.45,1.12,0.99l1.23,9.9
					c0.07,0.55,0.18,1.44,0.24,1.99l0.85,8.68c0.05,0.55,0.1,1,0.12,1s0.07-0.45,0.11-1l0.69-8.64c0.05-0.55,0.12-1.44,0.17-1.99
					l0.9-9.93c0.05-0.55,0.54-1,1.09-1h2.21c0.55,0,0.94,0.45,0.87,0.99l-3.66,28.12c-0.07,0.55-0.58,0.99-1.13,0.99h-2.45
					c-0.55,0-1.06-0.45-1.13-0.99l-1.05-7.89c-0.07-0.55-0.18-1.44-0.24-1.99l-0.79-7.88c-0.05-0.55-0.1-1-0.12-1
					s-0.08,0.45-0.14,0.99l-0.98,7.93c-0.07,0.55-0.2,1.44-0.28,1.98l-1.18,7.85c-0.08,0.54-0.6,0.99-1.15,0.99H48.09z"/>
				<path class="st1" d="M66.75,52.78c0-0.55,0.45-1,1-1h2.31c0.55,0,1,0.45,1,1v9.34c0,0.55,0.01,1,0.03,1s0.27-0.38,0.56-0.85
					c0,0,0.33-0.53,0.86-1.03c0.63-0.49,1.38-0.76,2.17-0.76c2.96,0,3.99,7.94,3.99,7.94c0.07,0.55,0.13,1.44,0.13,1.99v11.26
					c0,0.55-0.45,1-1,1h-2.31c-0.55,0-1-0.45-1-1V70.42c0-0.55-0.03-1.45-0.07-2c0,0-0.22-3.02-1.51-3.02
					c-0.72,0-1.26,1.15-1.26,1.15c-0.23,0.5-0.46,1.17-0.5,1.49s-0.08,1.52-0.08,2.07v11.58c0,0.55-0.45,1-1,1h-2.31
					c-0.55,0-1-0.45-1-1V52.78z"/>
				<path class="st1" d="M90.04,82.69c-0.55,0-1.05-0.45-1.11-0.99l-0.02-0.16c-0.06-0.55-0.12-0.99-0.14-0.99s-0.33,0.34-0.68,0.76
					c0,0-1.49,1.74-2.91,1.74c-2.44,0-4.25-2.77-4.25-6.65c0-5.72,6.43-7.82,6.43-7.82c0.52-0.17,0.95-0.42,0.95-0.56
					s-0.11-0.68-0.25-1.21c0,0-0.51-1.98-2.02-1.98c-1.28,0-2.44,0.72-2.44,0.72c-0.47,0.29-0.94,0.09-1.05-0.45l-0.4-1.97
					c-0.11-0.54,0.19-1.21,0.66-1.49c0,0,1.91-1.14,4.15-1.14c4.91,0,5.61,8.07,5.61,8.07c0.05,0.55,0.09,1.45,0.09,2v6.13
					c0,0.55,0.01,1.45,0.02,2l0.16,3.01c0.04,0.55-0.37,1-0.92,1H90.04z M88.45,73.06c0-0.55-0.44-0.91-0.98-0.81
					c0,0-2.44,0.48-2.44,3.52c0,2.19,0.89,2.99,1.55,2.99c0.69,0,1.28-1.01,1.28-1.01c0.28-0.48,0.52-1.02,0.55-1.2
					s0.05-1.14,0.05-1.69V73.06z"/>
				<path class="st1" d="M99.84,55.26c0.52-0.17,0.95,0.14,0.95,0.69v3.9c0,0.55,0.45,1,1,1h1.16c0.55,0,1,0.45,1,1V64
					c0,0.55-0.45,1-1,1h-1.16c-0.55,0-1,0.45-1,1v7.96c0,0.55,0.11,1.44,0.24,1.97c0,0,0.55,2.2,1.4,2.2c0.43,0,0.43,0,0.43,0
					c0.38-0.07,0.69,0.32,0.7,0.87l0.02,2.56c0,0.55-0.43,1.12-0.96,1.26c0,0-0.52,0.14-1.67,0.14c-1.25,0-2.34-0.4-3.1-1.38
					c-0.89-1.16-1.29-5.26-1.29-5.26c-0.05-0.55-0.1-1.45-0.1-2V66c0-0.55-0.43-1-0.95-1s-0.95-0.45-0.95-1v-2.15
					c0-0.55,0.43-1,0.95-1s0.95-0.45,0.95-1v-2.51c0-0.55,0.43-1.14,0.95-1.31L99.84,55.26z"/>
				<path class="st1" d="M105.65,78.4c0.1-0.54,0.56-0.74,1.02-0.44c0,0,0.97,0.62,2.06,0.62c1.12,0,1.75-0.67,1.75-1.97
					c0-1.12-1.16-2.25-1.16-2.25c-0.39-0.38-0.99-1.06-1.32-1.49c0,0-2.65-3.49-2.65-5.5c0-3.93,2.07-6.88,5.3-6.88
					c1.35,0,2.37,0.53,2.37,0.53c0.49,0.25,0.81,0.9,0.72,1.44l-0.41,2.32c-0.1,0.54-0.55,0.74-1.01,0.44c0,0-0.54-0.35-1.4-0.35
					c-1.09,0-1.61,0.89-1.61,1.88s1.14,2.04,1.14,2.04c0.4,0.37,1.01,1.03,1.35,1.46c0,0,2.64,3.33,2.64,5.83
					c0,4.47-2.37,6.88-5.7,6.88c-1.35,0-2.81-0.78-2.81-0.78c-0.48-0.26-0.8-0.91-0.7-1.46L105.65,78.4z"/>
				<path class="st1" d="M121.55,75.81c-0.55,0-1.06,0.45-1.14,0.99l-0.7,4.9c-0.08,0.54-0.59,0.99-1.14,0.99h-2.18
					c-0.55,0-0.93-0.44-0.84-0.99l4.49-28.13c0.09-0.54,0.61-0.99,1.16-0.99h3.17c0.55,0,1.06,0.45,1.14,0.99l4.03,28.12
					c0.08,0.54-0.31,0.99-0.86,0.99h-2.18c-0.55,0-1.06-0.45-1.14-0.99l-0.68-4.9c-0.08-0.54-0.59-0.99-1.14-0.99H121.55z
					 M123.14,71.25c0.55,0,0.95-0.45,0.89-0.99l-0.5-4.31c-0.06-0.55-0.16-1.44-0.22-1.99l-0.52-4.84c-0.05-0.55-0.12-1-0.15-1
					s-0.1,0.45-0.16,0.99l-0.57,4.89c-0.06,0.55-0.17,1.44-0.24,1.98l-0.56,4.27c-0.07,0.55,0.32,0.99,0.87,0.99H123.14z"/>
				<path class="st1" d="M131.68,68.77c0-0.55-0.01-1.45-0.01-2l-0.09-4.92c-0.02-0.55,0.42-1,0.97-1h1.75c0.55,0,1.04,0.45,1.09,1
					l0.05,0.51c0.05,0.55,0.11,1,0.12,1s0.28-0.38,0.58-0.84c0,0,1.33-2.02,2.81-2.02c3.56,0,5.01,5.18,5.01,11.25
					c0,7.77-2.54,11.3-5.24,11.3c-1.32,0-2.13-1.3-2.13-1.3c-0.29-0.47-0.55-0.85-0.57-0.85s-0.03,0.45-0.03,1v8.36
					c0,0.55-0.45,1-1,1h-2.31c-0.55,0-1-0.45-1-1V68.77z M136,73.69c0,0.55,0.01,1.32,0.03,1.71s0.41,1.56,0.66,2.05
					c0,0,0.43,0.81,0.92,0.81c1.52,0,2.04-3.04,2.04-6.48c0-4.15-0.72-6.39-2.01-6.39c-0.66,0-1.28,0.85-1.45,1.88
					c-0.17,0.45-0.17,0.56-0.17,0.56c-0.02,0.55-0.03,1.45-0.03,2V73.69z"/>
				<path class="st1" d="M146.4,68.77c0-0.55-0.01-1.45-0.01-2l-0.09-4.92c-0.02-0.55,0.42-1,0.97-1h1.75c0.55,0,1.04,0.45,1.09,1
					l0.05,0.51c0.05,0.55,0.11,1,0.12,1s0.28-0.38,0.58-0.84c0,0,1.33-2.02,2.81-2.02c3.56,0,5.01,5.18,5.01,11.25
					c0,7.77-2.54,11.3-5.24,11.3c-1.32,0-2.13-1.3-2.13-1.3c-0.29-0.47-0.55-0.85-0.57-0.85s-0.03,0.45-0.03,1v8.36
					c0,0.55-0.45,1-1,1h-2.31c-0.55,0-1-0.45-1-1V68.77z M150.71,73.69c0,0.55,0.01,1.32,0.03,1.71s0.41,1.56,0.66,2.05
					c0,0,0.43,0.81,0.92,0.81c1.52,0,2.04-3.04,2.04-6.48c0-4.15-0.72-6.39-2.01-6.39c-0.66,0-1.28,0.85-1.45,1.88
					c-0.17,0.45-0.17,0.56-0.17,0.56c-0.02,0.55-0.03,1.45-0.03,2V73.69z"/>
				<path class="st1" d="M170.09,82.69c-0.55,0-1.06-0.45-1.12-0.99l-3.54-28.12c-0.07-0.55,0.33-0.99,0.88-0.99h2.48
					c0.55,0,1.04,0.45,1.09,1l0.91,10.02c0.05,0.55,0.12,1.44,0.16,1.99l0.62,8.54c0.04,0.55,0.09,1,0.11,1s0.1-0.45,0.16-0.99
					l1-8.6c0.08-0.54,0.2-1.44,0.27-1.98l1.32-9.99c0.07-0.55,0.58-0.99,1.13-0.99h1.49c0.55,0,1.06,0.45,1.12,0.99l1.23,9.9
					c0.07,0.55,0.18,1.44,0.24,1.99l0.85,8.68c0.05,0.55,0.1,1,0.12,1s0.07-0.45,0.11-1l0.69-8.64c0.05-0.55,0.12-1.44,0.17-1.99
					l0.91-9.93c0.05-0.55,0.54-1,1.09-1h2.21c0.55,0,0.94,0.45,0.87,0.99l-3.66,28.12c-0.07,0.55-0.58,0.99-1.13,0.99h-2.45
					c-0.55,0-1.06-0.45-1.13-0.99l-1.05-7.89c-0.07-0.55-0.18-1.44-0.24-1.99l-0.79-7.88c-0.05-0.55-0.1-1-0.12-1
					s-0.08,0.45-0.14,0.99l-0.98,7.93c-0.07,0.55-0.2,1.44-0.28,1.98l-1.18,7.85c-0.08,0.54-0.6,0.99-1.15,0.99H170.09z"/>
				<path class="st1" d="M193.33,73.84c-0.55,0-0.86,0.43-0.69,0.95c0,0,1.2,3.69,3.11,3.69c1.22,0,2.13-0.35,2.13-0.35
					c0.51-0.2,1,0.08,1.07,0.63l0.31,2.22c0.08,0.54-0.28,1.14-0.8,1.32c0,0-1.86,0.65-3.5,0.65c-4.38,0-6.78-3.93-6.78-10.76
					c0-7.33,2.8-11.7,6.45-11.7c3.46,0,5.47,3.71,5.47,10.32c0,1.56-0.04,2.04-0.04,2.04c-0.05,0.55-0.54,1-1.09,1H193.33z
					 M195.19,69.73c0.55,0,0.95-0.45,0.9-0.99c0,0-0.42-4.01-1.71-4.01c-1.42,0-1.89,4.01-1.89,4.01c-0.06,0.55,0.33,0.99,0.88,0.99
					H195.19z"/>
				<path class="st1" d="M203.38,82.69c-0.55,0-0.99-0.45-0.97-1l0.09-4.48c0.01-0.55,0.01-1.45,0.01-2V52.78c0-0.55,0.45-1,1-1
					h2.31c0.55,0,1,0.45,1,1v9.25c0,0.55,0.01,1,0.03,1s0.29-0.37,0.61-0.81c0,0,1.23-1.73,2.78-1.73c3.13,0,4.54,4.78,4.54,10.67
					c0,7.64-2.24,11.88-5.24,11.88c-1.35,0-2.64-2.1-2.64-2.1c-0.29-0.47-0.55-0.85-0.57-0.85s-0.09,0.45-0.14,1l-0.05,0.6
					c-0.05,0.55-0.54,1-1.09,1H203.38z M206.82,73.87c0,0.55,0.01,1.24,0.03,1.54s0.32,1.26,0.56,1.75c0,0,0.53,1.11,1.05,1.11
					c1.45,0,2.04-2.46,2.04-6.66c0-3.75-0.63-6.21-2.07-6.21c-0.66,0-1.08,1.08-1.08,1.08c-0.2,0.51-0.4,1.14-0.45,1.4
					s-0.08,1.32-0.08,1.87V73.87z"/>
				<path class="st1" d="M233.44,81.24c0.05,0.55-0.33,1.16-0.85,1.36c0,0-0.91,0.35-2.43,0.35c-5.66,0-8.36-6.34-8.36-14.87
					c0-11.34,4.64-15.77,8.96-15.77c1.52,0,2.12,0.33,2.12,0.33c0.48,0.26,0.81,0.92,0.73,1.47l-0.43,2.93
					c-0.08,0.54-0.54,0.77-1.02,0.51c0,0-0.18-0.1-1.13-0.1c-2.44,0-4.64,2.86-4.64,10.32c0,7.19,2.01,10,4.64,10
					c0.72,0,1.12-0.13,1.12-0.13c0.52-0.17,0.99,0.13,1.04,0.68L233.44,81.24z"/>
				<path class="st1" d="M235.5,52.78c0-0.55,0.45-1,1-1h2.31c0.55,0,1,0.45,1,1v28.91c0,0.55-0.45,1-1,1h-2.31c-0.55,0-1-0.45-1-1
					V52.78z"/>
				<path class="st1" d="M254.67,71.7c0,9.11-3.72,11.34-6.16,11.34c-3.85,0-6.16-4.11-6.16-11.21c0-7.86,3.03-11.34,6.22-11.34
					C252.36,60.49,254.67,64.82,254.67,71.7z M246.63,71.7c0,3.75,0.43,6.88,1.98,6.88c1.38,0,1.75-3.66,1.75-6.88
					c0-2.99-0.36-6.79-1.81-6.79C246.96,64.91,246.63,68.71,246.63,71.7z"/>
				<path class="st1" d="M257.11,68.41c0-0.55-0.01-1.45-0.02-2l-0.08-4.57c-0.02-0.55,0.42-1,0.97-1h1.72c0.55,0,1.04,0.45,1.08,1
					l0.04,0.51c0.04,0.55,0.09,1,0.11,1s0.31-0.35,0.65-0.79c0,0,1.62-2.07,3.3-2.07c3.06,0,4.13,7.18,4.13,7.18
					c0.08,0.54,0.15,1.44,0.15,1.99v12.02c0,0.55-0.45,1-1,1h-2.31c-0.55,0-1-0.45-1-1V70.02c0-0.55-0.04-1.45-0.09-2
					c0,0-0.24-2.62-1.49-2.62c-0.72,0-1.2,1.05-1.2,1.05c-0.23,0.5-0.46,1.17-0.53,1.49s-0.12,1.88-0.12,2.43v11.31
					c0,0.55-0.45,1-1,1h-2.31c-0.55,0-1-0.45-1-1V68.41z"/>
				<path class="st1" d="M276.78,73.84c-0.55,0-0.86,0.43-0.69,0.95c0,0,1.2,3.69,3.11,3.69c1.22,0,2.13-0.35,2.13-0.35
					c0.51-0.2,1,0.08,1.07,0.63l0.31,2.22c0.08,0.54-0.28,1.14-0.8,1.32c0,0-1.86,0.65-3.5,0.65c-4.38,0-6.78-3.93-6.78-10.76
					c0-7.33,2.8-11.7,6.45-11.7c3.46,0,5.47,3.71,5.47,10.32c0,1.56-0.04,2.04-0.04,2.04c-0.05,0.55-0.54,1-1.09,1H276.78z
					 M278.63,69.73c0.55,0,0.95-0.45,0.9-0.99c0,0-0.42-4.01-1.71-4.01c-1.42,0-1.89,4.01-1.89,4.01c-0.06,0.55,0.33,0.99,0.88,0.99
					H278.63z"/>
			</g>
		</g>
	</g>
</g>
</svg>
