<?xml version="1.0" encoding="utf-8"?>
<!-- Generator: Adobe Illustrator 16.0.0, SVG Export Plug-In . SVG Version: 6.00 Build 0)  -->
<!DOCTYPE svg PUBLIC "-//W3C//DTD SVG 1.1//EN" "http://www.w3.org/Graphics/SVG/1.1/DTD/svg11.dtd">
<svg version="1.1" id="Layer_1" xmlns="http://www.w3.org/2000/svg" xmlns:xlink="http://www.w3.org/1999/xlink" x="0px" y="0px"
	 width="70px" height="70px" viewBox="0 0 70 70" enable-background="new 0 0 70 70" xml:space="preserve">
<g>
	<g>
		<g>
			<path fill="none" stroke="#1A41FF" stroke-width="5" stroke-miterlimit="10" d="M67.5,58.5c0,0.553-0.447,1-1,1h-57
				c-0.552,0-1-0.447-1-1v-49c0-0.552,0.448-1,1-1h57c0.553,0,1,0.448,1,1V58.5z"/>
		</g>
		<path fill="none" stroke="#1A41FF" stroke-width="5" stroke-miterlimit="10" d="M8.562,8.974c0,0,18.405,19.146,25.005,24.957
			c1.426,1.255,4.087,3.166,7.368,0L66.025,8.974"/>
	</g>
	<g>
		<g>
			<path fill="none" stroke="#FF29F5" stroke-width="5" stroke-miterlimit="10" d="M61.5,58.5c0,0.553-0.447,1-1,1h-57
				c-0.552,0-1-0.447-1-1v-49c0-0.552,0.448-1,1-1h57c0.553,0,1,0.448,1,1V58.5z"/>
		</g>
		<path fill="none" stroke="#FF29F5" stroke-width="5" stroke-miterlimit="10" d="M3.127,8.974c0,0,18.406,19.146,25.006,24.957
			c1.425,1.255,4.086,3.166,7.369,0L60.593,8.974"/>
	</g>
	<g>
		<g>
			<path fill="none" stroke="#FFFFFF" stroke-width="5" stroke-miterlimit="10" d="M64.5,58.5c0,0.553-0.447,1-1,1h-57
				c-0.552,0-1-0.447-1-1v-49c0-0.552,0.448-1,1-1h57c0.553,0,1,0.448,1,1V58.5z"/>
		</g>
		<path fill="none" stroke="#FFFFFF" stroke-width="5" stroke-miterlimit="10" d="M5.845,8.974c0,0,18.406,19.146,25.005,24.957
			c1.425,1.255,4.087,3.166,7.368,0l25.09-24.957"/>
	</g>
</g>
<rect x="-26" y="5" fill="#FF29F5" width="19" height="20"/>
<rect x="-26" y="31" fill="#1A41FF" width="19" height="20"/>
</svg>
