<?xml version="1.0" encoding="utf-8"?>
<!-- Generator: Adobe Illustrator 16.0.0, SVG Export Plug-In . SVG Version: 6.00 Build 0)  -->
<!DOCTYPE svg PUBLIC "-//W3C//DTD SVG 1.1//EN" "http://www.w3.org/Graphics/SVG/1.1/DTD/svg11.dtd">
<svg version="1.1" id="Layer_1" xmlns="http://www.w3.org/2000/svg" xmlns:xlink="http://www.w3.org/1999/xlink" x="0px" y="0px"
	 width="100px" height="100px" viewBox="0 0 100 100" enable-background="new 0 0 100 100" xml:space="preserve">
<g>
	<path id="cabeça_2_" fill="none" stroke="#1A41FF" stroke-width="2" stroke-miterlimit="10" d="M51.649,93.773
		c0,0-34.446,6.697-37.316-46.646c0,0,0.239-16.983,6.458-22.246c0,0,5.263,4.784,5.741,8.372c0,0,0.717-20.572,3.109-21.528
		c0,0,14.592-7.416,19.615-4.545l2.392,15.07c0,0,8.851-9.808,15.788-7.176c0,0,9.328,4.066,10.047,4.784
		c0.717,0.717,3.827,15.548,3.827,15.548l3.827-2.87c0,0,4.067,6.938,3.588,10.525c0,0-2.871,12.438-2.632,15.309
		c0,0-3.109,14.831-3.109,16.984C82.985,75.354,79.397,93.296,51.649,93.773z"/>
	<path fill="none" stroke="#1A41FF" stroke-miterlimit="10" d="M19.425,26.339c0,0,1.367,9.305,1.606,11.458"/>
	<path fill="none" stroke="#1A41FF" stroke-width="2" stroke-miterlimit="10" d="M26.225,32.068c0,0,1.504,9.077,1.504,10.513"/>
	<path fill="none" stroke="#1A41FF" stroke-width="2" stroke-miterlimit="10" d="M38.981,7.905c0,0,0.01,12.668,0,15.3"/>
	<path fill="none" stroke="#1A41FF" stroke-width="2" stroke-miterlimit="10" d="M41.364,7.905c0,0,1.913,31.787,1.913,32.284"/>
	<path fill="none" stroke="#1A41FF" stroke-width="2" stroke-miterlimit="10" d="M48.062,44.256c0,1.914-1.914-8.133-4.785-9.569"/>
	<path fill="#1A41FF" d="M65.517,14.652c0,0-2.146,23.864-1.907,25.538c0.239,1.674,4.584-24.152,4.923-24.634
		C68.873,15.074,65.517,14.652,65.517,14.652z"/>
	<polygon fill="none" stroke="#1A41FF" stroke-width="2" stroke-miterlimit="10" points="76.472,19.245 68.557,28.946 
		77.484,19.858 	"/>
	<path fill="none" stroke="#1A41FF" stroke-width="2" stroke-miterlimit="10" d="M86.284,34.687c0,0-3.776,5.98-4.256,7.894"/>
	<path fill="#1A41FF" d="M88.462,40.268c0,0-5.285,6.383-4.305,10.688c0,0,3.134-7.653,4.569-7.894
		C90.162,42.82,88.462,40.268,88.462,40.268z"/>
	<circle fill="none" stroke="#1A41FF" stroke-miterlimit="10" cx="32.603" cy="66.593" r="9"/>
	<circle fill="none" stroke="#1A41FF" stroke-miterlimit="10" cx="69.919" cy="66.593" r="9"/>
	<path fill="none" stroke="#1A41FF" stroke-miterlimit="10" d="M41.856,82.71c0,0,7.841,3.416,17.347,0.369"/>
	<ellipse fill="#FFFFFF" stroke="#1A41FF" stroke-miterlimit="10" cx="30.001" cy="64.401" rx="2.99" ry="3.06"/>
	<ellipse fill="#FFFFFF" stroke="#1A41FF" stroke-miterlimit="10" cx="35.078" cy="71.191" rx="1.608" ry="1.646"/>
	<ellipse fill="#FFFFFF" stroke="#1A41FF" stroke-miterlimit="10" cx="66.6" cy="64.401" rx="2.99" ry="3.06"/>
	<ellipse fill="#FFFFFF" stroke="#1A41FF" stroke-miterlimit="10" cx="71.677" cy="71.191" rx="1.608" ry="1.646"/>
</g>
<g>
	<path id="cabeça" fill="none" stroke="#FF29F5" stroke-width="2" stroke-miterlimit="10" d="M47.649,93.773
		c0,0-34.446,6.697-37.316-46.646c0,0,0.239-16.983,6.458-22.246c0,0,5.263,4.784,5.741,8.372c0,0,0.717-20.572,3.109-21.528
		c0,0,14.592-7.416,19.615-4.545l2.392,15.07c0,0,8.851-9.808,15.788-7.176c0,0,9.328,4.066,10.047,4.784
		c0.717,0.717,3.827,15.548,3.827,15.548l3.827-2.87c0,0,4.067,6.938,3.588,10.525c0,0-2.871,12.438-2.632,15.309
		c0,0-3.109,14.831-3.109,16.984C78.985,75.354,75.397,93.296,47.649,93.773z"/>
	<path fill="#FF29F5" stroke="#FF29F5" stroke-miterlimit="10" d="M15.425,26.339c0,0,1.367,9.305,1.606,11.458"/>
	<path fill="none" stroke="#FF29F5" stroke-width="2" stroke-miterlimit="10" d="M22.225,32.068c0,0,1.504,9.077,1.504,10.513"/>
	<path fill="none" stroke="#FF29F5" stroke-width="2" stroke-miterlimit="10" d="M34.981,7.905c0,0,0.01,12.668,0,15.3"/>
	<path fill="none" stroke="#FF29F5" stroke-width="2" stroke-miterlimit="10" d="M37.364,7.905c0,0,1.913,31.787,1.913,32.284"/>
	<path fill="none" stroke="#FF29F5" stroke-width="2" stroke-miterlimit="10" d="M44.062,44.256c0,1.914-1.914-8.133-4.785-9.569"/>
	<path fill="#FF29F5" d="M61.517,14.652c0,0-2.146,23.864-1.907,25.538c0.239,1.674,4.584-24.152,4.923-24.634
		C64.873,15.074,61.517,14.652,61.517,14.652z"/>
	<polygon fill="none" stroke="#FF29F5" stroke-width="2" stroke-miterlimit="10" points="72.472,19.245 64.557,28.946 
		73.484,19.858 	"/>
	<path fill="none" stroke="#FF29F5" stroke-width="2" stroke-miterlimit="10" d="M82.284,34.687c0,0-3.776,5.98-4.256,7.894"/>
	<path fill="#FF29F5" d="M84.462,40.268c0,0-5.285,6.383-4.305,10.688c0,0,3.134-7.653,4.569-7.894
		C86.162,42.82,84.462,40.268,84.462,40.268z"/>
	<circle fill="none" stroke="#FF29F5" stroke-miterlimit="10" cx="28.603" cy="66.593" r="9"/>
	<circle fill="none" stroke="#FF29F5" stroke-miterlimit="10" cx="65.919" cy="66.593" r="9"/>
	<path fill="none" stroke="#FF29F5" stroke-miterlimit="10" d="M37.856,82.71c0,0,7.841,3.416,17.347,0.369"/>
	<ellipse fill="#FFFFFF" stroke="#FF29F5" stroke-miterlimit="10" cx="26.001" cy="64.401" rx="2.99" ry="3.06"/>
	<ellipse fill="#FFFFFF" stroke="#FF29F5" stroke-miterlimit="10" cx="31.078" cy="71.191" rx="1.608" ry="1.646"/>
	<ellipse fill="#FFFFFF" stroke="#FF29F5" stroke-miterlimit="10" cx="62.6" cy="64.401" rx="2.99" ry="3.06"/>
	<ellipse fill="#FFFFFF" stroke="#FF29F5" stroke-miterlimit="10" cx="67.677" cy="71.191" rx="1.608" ry="1.646"/>
</g>
<g>
	<path id="cabeça_1_" fill="none" stroke="#FFFFFF" stroke-miterlimit="10" d="M49.649,93.773c0,0-34.446,6.697-37.316-46.646
		c0,0,0.239-16.983,6.458-22.246c0,0,5.263,4.784,5.741,8.372c0,0,0.717-20.572,3.109-21.528c0,0,14.592-7.416,19.615-4.545
		l2.392,15.07c0,0,8.851-9.808,15.788-7.176c0,0,9.328,4.066,10.047,4.784c0.717,0.717,3.827,15.548,3.827,15.548l3.827-2.87
		c0,0,4.067,6.938,3.588,10.525c0,0-2.871,12.438-2.632,15.309c0,0-3.109,14.831-3.109,16.984
		C80.985,75.354,77.397,93.296,49.649,93.773z"/>
	<g id="rachaduras_1_">
		<path fill="none" stroke="#FFFFFF" stroke-miterlimit="10" d="M17.425,26.339c0,0,1.367,9.305,1.606,11.458"/>
		<path fill="none" stroke="#FFFFFF" stroke-miterlimit="10" d="M24.225,32.068c0,0,1.504,9.077,1.504,10.513"/>
		<path fill="none" stroke="#FFFFFF" stroke-miterlimit="10" d="M36.981,7.905c0,0,0.01,12.668,0,15.3"/>
		<path fill="none" stroke="#FFFFFF" stroke-miterlimit="10" d="M39.364,7.905c0,0,1.913,31.787,1.913,32.284"/>
		<path fill="none" stroke="#FFFFFF" stroke-miterlimit="10" d="M46.062,44.256c0,1.914-1.914-8.133-4.785-9.569"/>
		<path fill="#FFFFFF" stroke="#FFFFFF" stroke-miterlimit="10" d="M63.517,14.652c0,0-2.146,23.864-1.907,25.538
			c0.239,1.674,4.584-24.152,4.923-24.634C66.873,15.074,63.517,14.652,63.517,14.652z"/>
		<polygon fill="none" stroke="#FFFFFF" stroke-miterlimit="10" points="74.472,19.245 66.557,28.946 75.484,19.858 		"/>
		<path fill="none" stroke="#FFFFFF" stroke-miterlimit="10" d="M84.284,34.687c0,0-3.776,5.98-4.256,7.894"/>
		<path fill="#FFFFFF" stroke="#FFFFFF" stroke-miterlimit="10" d="M86.462,40.268c0,0-5.285,6.383-4.305,10.688
			c0,0,3.134-7.653,4.569-7.894C88.162,42.82,86.462,40.268,86.462,40.268z"/>
	</g>
	<circle fill="none" stroke="#FFFFFF" stroke-miterlimit="10" cx="30.603" cy="66.593" r="9"/>
	<circle fill="none" stroke="#FFFFFF" stroke-miterlimit="10" cx="67.919" cy="66.593" r="9"/>
	<path fill="none" stroke="#FFFFFF" stroke-miterlimit="10" d="M39.856,82.71c0,0,7.841,3.416,17.347,0.369"/>
	<ellipse fill="#FFFFFF" stroke="#FFFFFF" stroke-miterlimit="10" cx="28.001" cy="64.401" rx="2.99" ry="3.06"/>
	<ellipse fill="#FFFFFF" stroke="#FFFFFF" stroke-miterlimit="10" cx="33.078" cy="71.191" rx="1.608" ry="1.646"/>
	<ellipse fill="#FFFFFF" stroke="#FFFFFF" stroke-miterlimit="10" cx="64.6" cy="64.401" rx="2.99" ry="3.06"/>
	<ellipse fill="#FFFFFF" stroke="#FFFFFF" stroke-miterlimit="10" cx="69.677" cy="71.191" rx="1.608" ry="1.646"/>
</g>
<circle display="none" fill="#FF29F5" cx="-47.625" cy="28.625" r="28.625"/>
</svg>
