<?xml version="1.0" encoding="utf-8"?>
<!-- Generator: Adobe Illustrator 16.0.0, SVG Export Plug-In . SVG Version: 6.00 Build 0)  -->
<!DOCTYPE svg PUBLIC "-//W3C//DTD SVG 1.1//EN" "http://www.w3.org/Graphics/SVG/1.1/DTD/svg11.dtd">
<svg version="1.1" id="Layer_1" xmlns="http://www.w3.org/2000/svg" xmlns:xlink="http://www.w3.org/1999/xlink" x="0px" y="0px"
	 width="70px" height="70px" viewBox="0 0 70 70" enable-background="new 0 0 70 70" xml:space="preserve">
<path fill="none" stroke="#FFFFFF" stroke-width="5" stroke-miterlimit="10" d="M66.5,52.91c0,5.833-3.363,12.59-9.43,12.59H16.787
	C10.719,65.5,4.5,58.743,4.5,52.91V12.42c0-5.833,6.219-9.92,12.287-9.92H57.07c6.066,0,9.43,4.087,9.43,9.92V52.91z"/>
<circle fill="none" stroke="#FFFFFF" stroke-width="5" stroke-miterlimit="10" cx="34.758" cy="33.598" r="15.251"/>
<circle fill="#FFFFFF" cx="53.225" cy="11.793" r="3.694"/>
<g>
	<path fill="none" stroke="#1A41FF" stroke-width="5" stroke-miterlimit="10" d="M67.5,52.91c0,5.833-2.457,12.59-8.522,12.59
		H18.694C12.625,65.5,5.5,58.743,5.5,52.91V12.42c0-5.833,7.125-9.92,13.194-9.92h40.284c6.065,0,8.522,4.087,8.522,9.92V52.91z"/>
	<circle fill="none" stroke="#1A41FF" stroke-width="5" stroke-miterlimit="10" cx="36.664" cy="33.598" r="15.251"/>
	<circle fill="#1A41FF" cx="55.132" cy="11.793" r="3.694"/>
</g>
<g>
	<path fill="none" stroke="#FF29F5" stroke-width="5" stroke-miterlimit="10" d="M64.5,52.91c0,5.833-3.269,12.59-9.335,12.59H14.88
		C8.813,65.5,2.5,58.743,2.5,52.91V12.42c0-5.833,6.313-9.92,12.38-9.92h40.285c6.066,0,9.335,4.087,9.335,9.92V52.91z"/>
	<circle fill="none" stroke="#FF29F5" stroke-width="5" stroke-miterlimit="10" cx="32.851" cy="33.598" r="15.251"/>
	<circle fill="#FF29F5" cx="51.319" cy="11.793" r="3.693"/>
</g>
<g>
	<path fill="none" stroke="#FFFFFF" stroke-width="5" stroke-miterlimit="10" d="M66.5,52.91c0,5.833-3.363,12.59-9.43,12.59H16.787
		C10.719,65.5,4.5,58.743,4.5,52.91V12.42c0-5.833,6.219-9.92,12.287-9.92H57.07c6.066,0,9.43,4.087,9.43,9.92V52.91z"/>
	<circle fill="none" stroke="#FFFFFF" stroke-width="5" stroke-miterlimit="10" cx="34.758" cy="33.598" r="15.251"/>
	<circle fill="#FFFFFF" cx="53.225" cy="11.793" r="3.694"/>
</g>
<rect x="-31" y="3" fill="#FF29F5" width="19" height="20"/>
<rect x="-31" y="29" fill="#1A41FF" width="19" height="20"/>
</svg>
