<?xml version="1.0" encoding="utf-8"?>
<!-- Generator: Adobe Illustrator 16.0.0, SVG Export Plug-In . SVG Version: 6.00 Build 0)  -->
<!DOCTYPE svg PUBLIC "-//W3C//DTD SVG 1.1//EN" "http://www.w3.org/Graphics/SVG/1.1/DTD/svg11.dtd">
<svg version="1.1" id="Layer_1" xmlns="http://www.w3.org/2000/svg" xmlns:xlink="http://www.w3.org/1999/xlink" x="0px" y="0px"
	 width="70px" height="70px" viewBox="0 0 70 70" enable-background="new 0 0 70 70" xml:space="preserve">
<rect x="-23" y="5" fill="#FF29F5" width="19" height="20"/>
<rect x="-23" y="31" fill="#1A41FF" width="19" height="20"/>
<g display="none">
	<path display="inline" fill="#FF29F5" d="M70,50c0,11-9,20-20,20H20C9,70,0,61,0,50V20C0,9,9,0,20,0h30c11,0,20,9,20,20V50z"/>
</g>
<g>
	<path fill="#1A41FF" d="M51.5,0c-0.019,0-0.028,0-0.028,0H22.754C21.989,0,7.882,0.129,4,17.917v33.804
		C7.882,70,22.782,70,22.782,70h28.689c0,0,14.987,0,18.528-18.279V17.917C66.553,0.129,52.265,0,51.5,0z M26,54h-8V25h8V54z
		 M22.896,24.368c-2.474,0-4.477-2.133-4.477-4.758c0-2.634,2.002-4.757,4.477-4.757c2.483,0,4.495,2.123,4.495,4.757
		C27.39,22.234,25.379,24.368,22.896,24.368z M46.089,54C47.043,28,38,38.279,38,38.279V54h-9V25h9v3.514
		c9-3.815,14.546-1.25,16.237,6.493C54.709,36.258,54.776,54,54.776,54H46.089z"/>
	<path fill="#FF29F5" d="M47.723,0c-0.02,0-0.028,0-0.028,0H18.977C18.211,0,4,0.129,0,17.917v33.804C4,70,19.005,70,19.005,70
		h28.689C47.694,70,62,70,66,51.721V17.917C63,0.129,48.487,0,47.723,0z M22,54h-7V25h7V54z M19.118,24.368
		c-2.475,0-4.476-2.133-4.476-4.758c0-2.634,2.001-4.757,4.476-4.757c2.484,0,4.495,2.123,4.495,4.757
		C23.613,22.234,21.602,24.368,19.118,24.368z M42.311,54C43.266,28,34,38.279,34,38.279V54h-9V25h9v3.514
		c9-3.815,14.657-1.25,16.347,6.493C50.819,36.258,51,54,51,54H42.311z"/>
	<path fill="#FFFFFF" d="M49.612,0c-0.021,0-0.029,0-0.029,0H20.865C20.101,0,6,0.129,2,17.917v33.804C6,70,20.894,70,20.894,70
		h28.689C49.583,70,64,70,68,51.721V17.917C65,0.129,50.376,0,49.612,0z M24,54h-7V25h7V54z M21.007,24.368
		c-2.475,0-4.477-2.133-4.477-4.758c0-2.634,2.002-4.757,4.477-4.757c2.483,0,4.495,2.123,4.495,4.757
		C25.502,22.234,23.49,24.368,21.007,24.368z M44.2,54C45.154,28,36,38.279,36,38.279V54h-9V25h9v3.514
		c9-3.815,14.601-1.25,16.292,6.493C52.764,36.258,52.888,54,52.888,54H44.2z"/>
</g>
</svg>
