<?xml version="1.0" encoding="utf-8"?>
<!-- Generator: Adobe Illustrator 16.0.0, SVG Export Plug-In . SVG Version: 6.00 Build 0)  -->
<!DOCTYPE svg PUBLIC "-//W3C//DTD SVG 1.1//EN" "http://www.w3.org/Graphics/SVG/1.1/DTD/svg11.dtd">
<svg version="1.1" id="Layer_1" xmlns="http://www.w3.org/2000/svg" xmlns:xlink="http://www.w3.org/1999/xlink" x="0px" y="0px"
	 width="200px" height="51px" viewBox="0 0 200 51" enable-background="new 0 0 200 51" xml:space="preserve">
<rect display="none" fill="#050505" width="200" height="52"/>
<g>
	<rect x="33.607" y="23" fill="#FF29F5" width="9.717" height="0"/>
	<rect x="39" y="26" fill="#1A41FF" width="5" height="1"/>
	<rect x="35.771" y="13.922" fill="#1A41FF" width="2" height="1"/>
	<circle fill="#FF29F5" cx="29.106" cy="19.191" r="0.801"/>
	<ellipse fill="#FF29F5" cx="39.905" cy="8.551" rx="1.274" ry="0.473"/>
	<rect x="50" y="7" fill="#FF29F5" width="22" height="3"/>
	<rect x="41" y="43" fill="#1A41FF" width="15" height="1"/>
	<ellipse fill="#FF29F5" cx="65.412" cy="34.503" rx="2.126" ry="0.654"/>
	<rect x="77.127" y="25" fill="#FF29F5" width="9.021" height="0"/>
	<rect x="82" y="35" fill="#1A41FF" width="6" height="1"/>
	<rect x="75.022" y="14" fill="#1A41FF" width="2.378" height="0"/>
	<circle fill="#FF29F5" cx="72.41" cy="19.653" r="0.801"/>
	<ellipse fill="#1A41FF" cx="79.507" cy="7.532" rx="1.274" ry="0.474"/>
	<rect x="88.265" y="7" fill="#FF29F5" width="23.077" height="0"/>
	<rect x="110" y="36" fill="#1A41FF" width="5" height="1"/>
	<rect x="106.771" y="23.922" fill="#1A41FF" width="2" height="1"/>
	<path fill="#FF29F5" d="M102.33,35.96c0,0.44-0.357,0.801-0.803,0.801c-0.441,0-0.8-0.36-0.8-0.801c0-0.444,0.358-0.803,0.8-0.803
		C101.973,35.157,102.33,35.516,102.33,35.96z"/>
	<ellipse fill="#FF29F5" cx="111.246" cy="18.015" rx="1.273" ry="0.474"/>
	<rect x="110" y="47" fill="#1A41FF" width="58" height="2"/>
	<ellipse fill="#FF29F5" cx="136.754" cy="43.967" rx="2.125" ry="0.656"/>
	<rect x="129.563" y="19" fill="#1A41FF" width="4.857" height="0"/>
	<rect x="126.739" y="7" fill="#1A41FF" width="2.379" height="0"/>
	<circle fill="#FF29F5" cx="123.805" cy="13.829" r="0.8"/>
	<ellipse fill="#FF29F5" cx="130.902" cy="1.708" rx="1.273" ry="0.474"/>
	<rect x="140.492" y="3" fill="#FF29F5" width="21.864" height="0"/>
	<rect x="132" y="37" fill="#1A41FF" width="15" height="1"/>
	<path fill="#FF29F5" d="M158.534,27.662c0,0.359-0.952,0.651-2.126,0.651c-1.173,0-2.126-0.292-2.126-0.651
		c0-0.363,0.953-0.656,2.126-0.656C157.582,27.006,158.534,27.299,158.534,27.662z"/>
	<ellipse fill="#FF29F5" cx="130.056" cy="15.576" rx="2.125" ry="0.655"/>
	<ellipse fill="#1A41FF" cx="29.212" cy="34.57" rx="13.279" ry="0.495"/>
	<circle fill="#1A41FF" cx="99.853" cy="28.68" r="1.384"/>
	<rect x="100.469" y="23" fill="#FF29F5" width="2.171" height="0"/>
	<rect x="75" y="44" fill="#FF29F5" width="21" height="2"/>
	<circle fill="#1A41FF" cx="156.345" cy="13.393" r="1.384"/>
	<g id="letra_v_1_">
		<path fill="#1A41FF" d="M49.529,15.431L49.07,13.43l0.456,2.001l0.003,0.017l0.017,0.056L49.529,15.431z M53.338,31.956
			l0.082,0.35l0.077-0.35H53.338z M54.082,29h-0.01L55,29.615v0.045L53.015,25h-5.394l1.455,4h5.129H54.082z M53.42,32.306
			l0.077-0.35h-0.159L53.42,32.306z M53.338,31.956l0.082,0.35l0.077-0.35H53.338z M56.038,34l-0.432,1.336L55.356,36h-0.124
			l-0.248-1.781l-0.143-1.58L55,32.389v-0.004l-0.158,0.939L54.618,34h-5.043l2.702,8h6.057l2.713-8H56.038z M57.625,25l-1.182,4
			h5.104l1.46-4H57.625z M50.789,15.433v0.071h0.015L50.789,15.433z M65.767,15.484l-0.006,0.02h0.011L65.767,15.484z M65.692,11
			l-0.571,2.039L65.712,11H65.692z"/>
		<path fill="#FF29F5" d="M43.615,15.431l-0.208-0.753l-0.363-1.285l-0.013-0.043l-0.563-1.996l0.495,1.76l0.014,0.053l0.066,0.233
			l0.131,0.473l0.016,0.051l0.021,0.08l0.025,0.091l0.029,0.1l0.346,1.235l0.002,0.004l0.02,0.069L43.615,15.431z M53.497,34
			l-0.077-0.671l-0.016-0.438l0.016-0.249l-0.309,1.765L52.871,36h-0.124L52.5,35.242L52.091,34h-5.002l2.7,8h6.058l0.012,0.697
			L58.561,34H53.497z M55.11,25l-1.059,4.568l-0.003,0.036l0.485,0.103L55,29.687v0.003L53.878,29h5.184l1.46-4H55.11z
			 M54.701,32.303l0.08-0.347h-0.163L54.701,32.303z M50.518,25h-5.382l1.454,4h5.1L50.518,25z M43.764,20.308l0.036,0.128v-0.128
			H43.764z M48.304,15.482l-0.003,0.022h0.007L48.304,15.482z M63.283,15.484l-0.006,0.02h0.01L63.283,15.484z M59.555,11
			l-0.009,0.251l-0.022,0.201l-0.009,0.09l-0.423,1.683L59.573,11H59.555z"/>
		<path fill="#FFFFFF" d="M43.634,15.457l-0.004-0.008l-0.005-0.017l-0.219-0.753l0.208,0.753l0.02,0.073h0.013L43.634,15.457z
			 M59.555,12l-0.009-0.064L59.524,12h-0.009l-0.023-0.104l-0.543,2.221l-0.009-0.006l-0.32,1.346l-0.009-0.227L58.598,15h0.028
			l0.017,0.178l0.45-1.552L59.573,12H59.555z M51.764,25h-5.378l1.453,4h5.098L51.764,25z M54.781,34l0.081-0.563L55,32.734v-0.063
			l-0.479,1.753L54.114,36H53.99l-0.467-1.781L53,32.347v0.018l0.202,0.954L53.338,34h-5l2.697,8h6.058l0.01,0.697L59.803,34H54.781
			z M56.369,25l-1.182,4h5.116l1.459-4H56.369z M49.546,15.475l-0.001,0.029h0.008L49.546,15.475z M64.524,15.484l-0.006,0.02h0.009
			L64.524,15.484z"/>
		<polygon fill="#FF29F5" points="44.217,15 42.975,15 41.792,12 43.034,12 43.544,13.437 43.56,13.33 43.615,13.43 43.625,13.433 
			43.988,14.446 		"/>
		<polygon fill="#FFFFFF" points="50.127,15 44.217,15 43.988,14.463 43.85,14.087 43.821,14.041 43.794,13.977 43.772,13.912 
			43.758,13.867 43.625,13.729 43.034,12 49.176,12 		"/>
		<polygon fill="#1A41FF" points="51.372,15 50.127,15 49.652,13.535 49.176,12 50.419,12 		"/>
		<polygon fill="#FF29F5" points="60.155,12 60.128,11.785 60.107,11.719 60.098,11.676 60.074,11.733 59.675,13.197 59.192,15 
			57.95,15 58.911,12 		"/>
		<polygon fill="#FFFFFF" points="66.294,12 66.274,11.75 65.704,13.339 65.11,15 59.208,15 59.521,13.844 59.531,13.907 
			59.675,13.339 60.074,11.666 60.098,11.582 60.107,11.552 60.128,11.783 60.155,12 		"/>
		<polygon fill="#1A41FF" points="67.538,12 66.354,15 65.131,15 65.704,13.177 66.274,11.643 66.294,12 		"/>
		<polygon fill="#FF29F5" points="44.436,21 43.182,21 41.81,15 43.065,15 		"/>
		<polygon fill="#FFFFFF" points="50.077,21 44.436,21 43.065,15 48.972,15 		"/>
		<polygon fill="#1A41FF" points="51.328,21 50.077,21 48.972,15 50.223,15 		"/>
		<polygon fill="#FF29F5" points="58.016,15 58.01,15.616 56.9,21 55.656,21 56.785,15 		"/>
		<polygon fill="#FFFFFF" points="63.937,15 62.559,21 56.9,21 58.01,15.616 58.016,15 		"/>
		<polygon fill="#1A41FF" points="65.178,15 63.801,21 62.559,21 63.937,15 		"/>
		<polygon fill="#FF29F5" points="46.969,25 45.718,25 45,20.436 45,21 45.6,21 		"/>
		<polygon fill="#FFFFFF" points="52.347,25 46.969,25 45.6,21 51.242,21 		"/>
		<polygon fill="#1A41FF" points="53.597,25 52.347,25 51.242,21 52.492,21 		"/>
		<polygon fill="#FF29F5" points="58.065,21 56.952,25 55.692,25 56.821,21 		"/>
		<polygon fill="#FFFFFF" points="63.723,21 62.346,25 56.952,25 58.065,21 		"/>
		<polygon fill="#1A41FF" points="64.966,21 63.59,25 62.346,25 63.723,21 		"/>
		<polygon fill="#FF29F5" points="47.754,31.869 46.507,31.869 46.008,30.389 47.255,30.389 		"/>
		<polygon fill="#FFFFFF" points="52.756,34 47.754,34 47.255,29 52.354,29 		"/>
		<polygon fill="#1A41FF" points="53.296,30.482 52.916,31.963 52.756,31.963 52.354,30.482 		"/>
		<polygon fill="#FF29F5" points="54.605,30.389 54.2,31.869 52.916,31.869 53.296,30.389 		"/>
		<polygon fill="#FFFFFF" points="59.721,29 59.221,34 54.2,34 54.605,29 		"/>
		<polygon fill="#1A41FF" points="60.964,30.389 60.463,31.869 59.221,31.869 59.721,30.389 		"/>
	</g>
	<g id="letra_i_1_">
		<rect x="77.771" y="10.922" fill="#1A41FF" width="1" height="2"/>
		<rect x="72" y="40" fill="#1A41FF" width="6" height="2"/>
		<rect x="72" y="29" fill="#1A41FF" width="6" height="9"/>
		<rect x="70.771" y="10.922" fill="#FF29F5" width="1" height="2"/>
		<rect x="71" y="40" fill="#FF29F5" width="6" height="2"/>
		<rect x="71" y="29" fill="#FF29F5" width="6" height="9"/>
		<rect x="72" y="12" fill="#FFFFFF" width="6" height="1"/>
		<rect x="72" y="40" fill="#FFFFFF" width="6" height="2"/>
		<rect x="72" y="29" fill="#FFFFFF" width="6" height="9"/>
		<rect x="70.444" y="14.047" fill="#FF29F5" width="0.582" height="0.583"/>
		<rect x="72" y="13" fill="#FFFFFF" width="6" height="1"/>
		<rect x="76.704" y="14.047" fill="#1A41FF" width="0.583" height="0.583"/>
		<rect x="72" y="14.147" fill="#FF29F5" width="0" height="7.288"/>
		<rect x="72" y="14" fill="#FFFFFF" width="6" height="8"/>
		<rect x="78" y="14" fill="#1A41FF" width="1" height="8"/>
		<rect x="71" y="22" fill="#FF29F5" width="1" height="4"/>
		<rect x="72" y="22" fill="#FFFFFF" width="6" height="4"/>
		<rect x="78" y="21.927" fill="#1A41FF" width="0" height="4.51"/>
		<rect x="72" y="26.293" fill="#FF29F5" width="0" height="3.645"/>
		<rect x="72" y="26" fill="#FFFFFF" width="6" height="3"/>
		<rect x="78" y="26" fill="#1A41FF" width="1" height="3"/>
		<rect x="79" y="37.82" fill="#1A41FF" width="0" height="2.172"/>
		<rect x="74" y="38" fill="#FFFFFF" width="5" height="2"/>
		<rect x="72" y="37.82" fill="#FF29F5" width="0" height="2.172"/>
	</g>
	<g id="letra_t_1_">
		<rect x="90" y="40" fill="#1A41FF" width="5" height="2"/>
		<rect x="89" y="40" fill="#FF29F5" width="5" height="2"/>
		<rect x="89" y="40" fill="#FFFFFF" width="5" height="2"/>
		<rect x="82" y="11.403" fill="#FF29F5" width="0" height="2.255"/>
		<rect x="82" y="12" fill="#FFFFFF" width="22" height="1"/>
		<rect x="104" y="11.403" fill="#1A41FF" width="0" height="2.255"/>
		<rect x="104" y="13" fill="#1A41FF" width="1" height="3"/>
		<rect x="83" y="13" fill="#FF29F5" width="1" height="3"/>
		<rect x="83" y="13" fill="#FFFFFF" width="22" height="2"/>
		<rect x="89" y="15.701" fill="#FF29F5" width="0" height="5.349"/>
		<rect x="88.207" y="21.619" fill="#FF29F5" width="0.436" height="0.582"/>
		<rect x="89" y="22.834" fill="#FF29F5" width="0" height="3.566"/>
		<rect x="89" y="28.184" fill="#FF29F5" width="0" height="2.378"/>
		<rect x="94" y="15" fill="#1A41FF" width="1" height="6"/>
		<rect x="94.467" y="21.619" fill="#1A41FF" width="0.581" height="0.582"/>
		<rect x="94" y="23" fill="#1A41FF" width="1" height="3"/>
		<rect x="95" y="28.046" fill="#1A41FF" width="0" height="2.172"/>
		<rect x="89" y="15" fill="#FFFFFF" width="5" height="6"/>
		<rect x="91.41" y="18.993" fill="#FFFFFF" width="0" height="6.015"/>
		<rect x="89" y="23" fill="#FFFFFF" width="5" height="3"/>
		<rect x="89" y="28" fill="#FFFFFF" width="5" height="1"/>
		<rect x="91" y="29.938" fill="#FF29F5" width="0" height="9.716"/>
		<rect x="96" y="30.196" fill="#1A41FF" width="0" height="9.773"/>
		<rect x="91" y="29" fill="#FFFFFF" width="5" height="11"/>
		<rect x="94.176" y="21.036" fill="#1A41FF" width="0.582" height="0.583"/>
		<rect x="87.915" y="21.036" fill="#FF29F5" width="0.438" height="0.583"/>
		<rect x="89" y="21" fill="#FFFFFF" width="5" height="1"/>
		<rect x="96.506" y="22.201" fill="#1A41FF" width="0.581" height="0.729"/>
		<rect x="91" y="22" fill="#FFFFFF" width="5" height="1"/>
		<rect x="90.245" y="22.201" fill="#FF29F5" width="0.436" height="0.729"/>
		<rect x="97.037" y="26.438" fill="#1A41FF" width="0" height="1.505"/>
		<rect x="90.263" y="26.779" fill="#FF29F5" width="0.74" height="1.482"/>
		<rect x="91" y="26" fill="#FFFFFF" width="5" height="2"/>
	</g>
	<g id="letra_o_1_">
		<path id="o_5_" fill="#1A41FF" d="M117.238,10.947c-0.023,0.003-0.049,0.005-0.071,0.008c0.032-0.003,0.067-0.005,0.104-0.007
			C117.26,10.948,117.249,10.947,117.238,10.947z M117.866,15.532c-0.073-0.004-0.146-0.024-0.222-0.024
			c-0.063,0.007-0.128-0.002-0.189-0.003c0.069,0.01,0.141,0.047,0.206,0.058c0.027,0.003,0.054,0.006,0.079,0.012
			c0.04-0.008,0.083-0.018,0.126-0.026c0.019-0.005,0.04-0.009,0.062-0.012C117.909,15.534,117.887,15.534,117.866,15.532z
			 M123.522,35c-0.597,1-1.918,2.987-4.836,3.163c0,0-0.001-0.069-0.005-0.069c-0.015-0.006-0.061-0.094-0.136-0.094h-0.006
			c-0.101,0-0.246-0.391-0.43-0.415c-0.019-0.002-0.037-0.205-0.06-0.21c-0.003,0-0.007,0.854-0.012,0.854
			c-1.066-0.178-3.178-1.229-4.145-3.229h-5.974c1.317,7,8.619,7.705,10.361,7.757c0.238,0.008,0.373-0.466,0.373-0.466
			c0.221-0.009,0.439,0.681,0.65,0.667C127.09,42.366,129.039,37,129.521,35H123.522z"/>
		<path id="o_4_" fill="#FF29F5" d="M117.866,15.532c-0.073-0.004-0.146-0.024-0.222-0.024c-0.063,0.007-0.128-0.002-0.189-0.003
			c0.069,0.01,0.141,0.047,0.206,0.058c0.027,0.003,0.054,0.006,0.079,0.012c0.04-0.008,0.083-0.018,0.126-0.026
			c0.019-0.005,0.04-0.009,0.062-0.012C117.909,15.534,117.887,15.534,117.866,15.532z M121.949,35
			c-0.509,1-1.584,2.577-3.839,3.122c-0.019,0.004-0.041-0.459-0.06-0.453c-0.003,0-0.007-0.235-0.012-0.233
			c-0.215,0.048-0.438-0.029-0.675-0.003c-0.092,0.011-0.185,0.897-0.28,0.903c0,0-3.52-0.336-4.816-3.336h-5.961
			c1.452,7,10.746,7.847,10.746,7.847c0.064-0.002,0.128-0.475,0.191-0.478c0.358-0.017,0.704,0.66,1.038,0.622
			c7.381-0.806,9.208-5.991,9.652-7.991H121.949z M117.238,10.947c-0.023,0.003-0.049,0.005-0.071,0.008
			c0.032-0.003,0.067-0.005,0.104-0.007C117.26,10.948,117.249,10.947,117.238,10.947z"/>
		<path id="o_3_" fill="#FFFFFF" d="M122.68,35c-0.522,1-1.633,2.665-3.998,3.159c-0.045,0.014-0.09-0.452-0.136-0.441
			c-0.003,0-0.004-0.234-0.006-0.234c-0.23,0.043-0.474-0.046-0.727-0.03c0,0-0.171,0.893-0.449,0.859
			c-0.991-0.115-3.357-1.313-4.37-3.313h-5.96c1.239,6,8.208,7.748,10.21,7.841c0.341,0.015,0.536-0.463,0.536-0.463
			c0.534-0.021,1.045,0.641,1.525,0.58c7.137-0.911,8.918-5.958,9.356-7.958H122.68z"/>
		<path fill="#FFFFFF" d="M125.444,13H110.15c1.535-1,3.768-2.1,7.017-2.349c0.032-0.003,0.067,0.145,0.104,0.143
			c0.052-0.004,0.107-0.236,0.164-0.24C121.228,10.577,123.759,12,125.444,13z"/>
		<path fill="#1A41FF" d="M126.414,13h-0.97c-1.686-1-4.217-2.346-8.01-2.369c-0.057,0.003-0.112,0.159-0.164,0.164
			c-0.011,0-0.021,0.077-0.032,0.077c0.343-0.042,0.7-0.344,1.07-0.366C122.174,10.527,124.73,12,126.414,13z"/>
		<path fill="#FF29F5" d="M117.238,10.947c-0.023,0.003-0.049-0.298-0.071-0.295C113.918,10.9,111.686,12,110.15,13h-0.727
			c1.574-1,3.889-2.156,7.281-2.369C116.886,10.633,117.063,10.94,117.238,10.947z"/>
		<path fill="#FF29F5" d="M116.105,10.948c-0.035,0.001-0.071,0.004-0.104,0.007c0.023-0.003,0.049-0.005,0.072-0.008
			C116.084,10.947,116.096,10.948,116.105,10.948z"/>
		<path fill="#1A41FF" d="M115.41,15.575c-0.025,0.007-0.052,0.047-0.078,0.055c-3.903,0.961-4.266,5.37-4.275,7.37h-0.875
			c0.025-2,0.486-7,4.908-8c0.002,0,0.002,0,0.004,0c0.01,0,0.021,0.252,0.032,0.253c0.069,0.01,0.14,0.174,0.206,0.184
			C115.358,15.439,115.385,15.57,115.41,15.575z"/>
		<path fill="#FF29F5" d="M106,22.29V23h-1v-0.71c0,0-1.707-6.29,2.094-9.29h0.728C104.022,16,106,22.29,106,22.29z"/>
		<path fill="#FF29F5" d="M120.81,23h-0.729c-0.043-2-0.524-6.771-4.67-7.39c0.041-0.01,0.084-0.036,0.127-0.045
			c0.018-0.004,0.04,0.019,0.061,0.016C120.235,15.826,120.763,21,120.81,23z"/>
		<path fill="#1A41FF" d="M116.764,15.537c-0.023,0.003-0.043,0.007-0.063,0.012c-0.043,0.008-0.086,0.018-0.126,0.026
			c-0.025-0.005-0.052-0.008-0.079-0.012c-0.064-0.011-0.137-0.048-0.205-0.058c0.061,0.001,0.125,0.01,0.189,0.003
			c0.075,0,0.147,0.02,0.221,0.024C116.723,15.534,116.744,15.534,116.764,15.537z"/>
		<path fill="#FFFFFF" d="M127,22.235V23h-6.19c-0.047-2-0.574-7.181-5.212-7.428c-0.018-0.002-0.041-0.022-0.061-0.022
			c-0.074-0.005-0.146-0.031-0.222-0.031c-0.063,0.004-0.128-0.26-0.189-0.261c-0.011-0.001-0.022-0.258-0.032-0.258
			c-0.002,0-0.002,0-0.004,0c-4.422,1-4.883,6-4.908,8H106v-0.71c0,0-1.978-6.29,1.821-9.29h15.292
			C126.802,16,127,22.235,127,22.235z"/>
		<path fill="#1A41FF" d="M127,22.157v0.493l0,0v-0.415c0,0-0.198-6.235-3.887-9.235h0.973C127.667,16,127,22.157,127,22.157z"/>
		<rect x="107" y="23" fill="#FF29F5" width="1" height="3"/>
		<path fill="#FFFFFF" d="M113,23.532V26h-5v-3h4.512C112.506,23,113,23.532,113,23.532z"/>
		<path fill="#1A41FF" d="M114,23.443V26h-1v-2.468c0,0-0.494-0.532-0.488-0.532h0.874C113.383,23,114,23.443,114,23.443z"/>
		<polygon fill="#FF29F5" points="124,23.214 123.138,26 122.409,26 122,23.204 122,23 124,23 		"/>
		<polygon fill="#FFFFFF" points="128.826,23 128.815,26 123.138,26 124,23.214 124,23 		"/>
		<polygon fill="#1A41FF" points="129.7,23 129.689,26 128.815,26 128.826,23 		"/>
		<path fill="#FF29F5" d="M105.285,35h-0.728c-0.124-1,0.442-3.494,0.442-4.413V26h2v4.587C107,31.506,105.162,34,105.285,35z"/>
		<path fill="#FFFFFF" d="M111.248,35h-5.963c-0.123-1,1.715-3.494,1.715-4.413V26h5v3.373C112,30.894,110.953,34,111.248,35z"/>
		<path fill="#1A41FF" d="M112.146,35h-0.898c-0.295-1,0.752-4.106,0.752-5.627v-3.08l0,0v2.99C112,30.853,111.838,34,112.146,35z"
			/>
		<path fill="#FF29F5" d="M121.387,30.543c0,0,0.054-0.543-0.456,4.457h-0.729c0.51-5,0.456-4.461,0.456-4.461L120.663,26h0.729
			L121.387,30.543z"/>
		<path fill="#FFFFFF" d="M127.054,31.98c0,0,0.033,2.02-0.139,3.02h-5.984c0.51-5,0.456-4.457,0.456-4.457L121.392,26h5.676
			L127.054,31.98z"/>
		<path fill="#1A41FF" d="M127.927,31.891c0,0,0.036,2.109-0.151,3.109h-0.86c0.172-1,0.139-3.02,0.139-3.02l0.014-5.98h0.875
			L127.927,31.891z"/>
	</g>
	<g id="letra_r_1_">
		<path id="t_5_" fill="#1A41FF" d="M153.545,40h-5.926c0.219,1,0.576,1.664,0.781,1.875c0.023,0.026,0.046-0.257,0.063-0.243
			c0.001,0,0.002-0.149,0.005-0.146c0.009,0.006,0.016-0.274,0.022-0.269c0.041,0.025,0.152-0.218,0.152-0.218H155v-0.05
			C154,40.46,153.761,40,153.545,40z M135,40v2h6v-2H135z M139.456,24.74v0.043l0.728-0.026v-0.044L139.456,24.74z M143.168,15
			h0.127C143.214,15,143.168,15,143.168,15z M142.574,15h0.136C142.622,15,142.574,15,142.574,15z"/>
		<path id="t_4_" fill="#FF29F5" d="M143.541,11.42c-0.022,0-0.045-0.002-0.064-0.002c-0.22-0.007-0.397-0.006-0.525-0.001
			c-0.037,0.001-0.069,0.001-0.099,0.003c-0.023,0.001-0.047,0.002-0.063,0.002c-0.046,0.003-0.068,0.004-0.068,0.004h0.966
			C143.635,11.423,143.586,11.421,143.541,11.42z M143.168,15h0.127C143.214,15,143.168,15,143.168,15z M139.456,24.74v0.043
			l0.728-0.026v-0.044L139.456,24.74z M134,40v2h6v-2H134z M152.256,40h-5.89c0.318,2,0.904,1.899,0.904,1.899l0.48,0.04L147.815,42
			h0.653L154,41.359v-0.47C154,40.414,152.468,40,152.256,40z"/>
		<path id="t_3_" fill="#FFFFFF" d="M142.574,15h0.136C142.622,15,142.574,15,142.574,15z M152.833,40h-5.876
			c0.233,1,0.611,1.713,0.794,1.878c0.025,0.025,0.048-0.26,0.064-0.251c0.003,0.003,0.004-0.146,0.006-0.146
			c0.023,0.016,0.036,0.251,0.036,0.251L148.476,42H154v-1.089C154,40.431,153.045,40,152.833,40z M134,40v2h7v-2H134z
			 M142.591,29.33l0.189,0.005h0.217L142.591,29.33z M143.541,11.42c-0.023,0-0.046,0-0.064,0.001
			c-0.105,0.006-0.162,0.006-0.162,0.006h0.653c0,0,0.052,0,0.142,0C143.871,11.427,143.677,11.418,143.541,11.42z"/>
		<rect x="134" y="11.403" fill="#FF29F5" width="0" height="6.765"/>
		<rect x="139.771" y="15.922" fill="#1A41FF" width="1" height="2"/>
		<path fill="#1A41FF" d="M143.439,15h-0.138C143.302,15,143.352,15,143.439,15z"/>
		<path fill="#FFFFFF" d="M152.268,18h-6.083c-0.827-2-2.302-2.43-2.743-2.447C143.36,15.55,143.314,15,143.314,15h-0.458
			c-0.087,0-0.136,0-0.136,0H141v3h-7v-6h10.114c0,0,0.05,0,0.141,0h0.017C146.198,12,150.958,12,152.268,18z"/>
		<path fill="#FF29F5" d="M146.185,18h-0.586c-0.823-2-2.288-3-2.742-3h0.585C143.883,15,145.357,16,146.185,18z"/>
		<path fill="#1A41FF" d="M144.023,15h-0.126C143.897,15,143.943,15,144.023,15z"/>
		<path fill="#1A41FF" d="M144.269,11.476c0.137-0.001,0.332,0.064,0.568,0.064c-0.09,0-0.139,0-0.139,0h-1.251
			c0,0,0.024-0.058,0.068-0.06c0.019,0,0.039-0.029,0.064-0.031c0.029-0.002,0.062-0.017,0.098-0.018
			c0.129-0.003,0.308,0.02,0.527,0.026C144.224,11.455,144.245,11.476,144.269,11.476z"/>
		<path fill="#1A41FF" d="M152.958,18h-0.69c-1.31-6-6.069-6.486-7.996-6.49c0.135,0,0.354-0.043,0.635-0.027
			c0.053,0.002,0.108-0.016,0.167-0.011c0.058,0.003,0.116-0.004,0.179,0.002c0.052,0.004,0.106,0.003,0.162,0.008
			c0.097,0.01,0.199,0.018,0.304,0.03c0.029,0.004,0.058,0.006,0.084,0.009c0.037,0.004,0.075,0.01,0.111,0.016
			c0.054,0.007,0.104,0.014,0.16,0.024c0.108,0.017,0.218,0.034,0.332,0.055c0.057,0.01,0.113,0.023,0.17,0.034
			c0.015,0.002,0.032,0.005,0.046,0.011c0.096,0.02,0.196,0.041,0.295,0.065c0.163,0.038,0.328,0.083,0.501,0.133
			c0.047,0.015,0.098,0.028,0.147,0.045c0.144,0.047,0.293,0.098,0.443,0.153c0.099,0.037,0.2-0.077,0.301-0.037
			c0.102,0.042,0.202-0.021,0.303-0.021c0.001,0,0.002,0,0.003,0c0.131,1,0.259,0.279,0.388,0.346
			c0.043,0.022,0.087,0.124,0.129,0.147c0.058,0.031,0.116,0.104,0.173,0.139c0.173,0.102,0.344,0.369,0.513,0.369
			c0.001,0,0.004,0,0.004,0c0.049,0,0.1,0.068,0.146,0.102c0.098,0.073,0.194,0.146,0.292,0.225c0.146,0.116,0.285,0.239,0.423,0.37
			c0.047,0.043,0.093,0.087,0.138,0.133c0.08,0.081,0.16,0.162,0.234,0.247c0.192,0.211,0.378,0.44,0.558,0.687
			c0.034,0.051,0.069,0.101,0.103,0.152c0.08,0.118,0.158,0.236,0.233,0.362c0.17,0.287,0.327,0.591,0.47,0.919
			c0.055,0.124,0.108,0.25,0.157,0.379c0.049,0.129,0.096,0.263,0.142,0.398c0.06,0.183,0.117,0.455,0.17,0.649
			C152.909,17.72,152.935,16,152.958,18z"/>
		<path fill="#1A41FF" d="M149.197,12.309c0.13,0.06,0.259,0.123,0.387,0.191C149.456,12.433,149.327,12.369,149.197,12.309z"/>
		<path fill="#1A41FF" d="M149.886,12.667c0.171,0.1,0.344,0.209,0.514,0.327C150.229,12.877,150.057,12.768,149.886,12.667z"/>
		<path fill="#1A41FF" d="M151.638,14.077c0.193,0.211,0.382,0.439,0.556,0.686C152.015,14.516,151.829,14.288,151.638,14.077z"/>
		<path fill="#1A41FF" d="M153.542,17.833h-0.002c-0.024-0.099-0.048-0.196-0.072-0.292
			C153.493,17.637,153.519,17.734,153.542,17.833z"/>
		<rect x="135" y="17.791" fill="#FF29F5" width="0" height="8.502"/>
		<path fill="#FF29F5" d="M145.302,24.624L142,24.757v-0.044l2.714-0.11c0,0,3.005-0.566,2.595-4.668
			c-0.084-0.84-0.438-1.935-0.691-1.935h0.585c0.259,0,0.614,1.1,0.698,1.945C148.313,24.049,145.302,24.624,145.302,24.624z"/>
		<path fill="#FFFFFF" d="M150.968,26H135v-8h6v6.783l0.54-0.026l3.53-0.133c0,0,3.127-0.575,2.715-4.679
			C147.703,19.1,147.461,18,147.202,18H154c0,0,0-0.165,0-0.164c0,0.459-0.146,1.026-0.087,1.552
			C154.328,22.752,152.376,25,150.968,26z"/>
		<polygon fill="#1A41FF" points="142,18 142,24.713 141,24.74 141,18 		"/>
		<rect x="140.183" y="24.726" fill="#1A41FF" width="0.726" height="0.044"/>
		<path fill="#1A41FF" d="M151.69,26h-0.723c1.408-1,3.36-3.248,2.945-6.612c-0.06-0.526,0.087-1.093,0.087-1.552
			c0-0.001,0,0.332,0,0.332l0,0c0,0,0-0.333,0-0.332c0,0.465,0.188,1.037,0.243,1.57C154.655,22.739,153.091,25,151.69,26z"/>
		<rect x="134" y="25.687" fill="#FF29F5" width="0" height="6.766"/>
		<polygon fill="#1A41FF" points="143.771,29.33 141,29.31 141,32.365 141,32.365 141,29.272 		"/>
		<polygon fill="#FF29F5" points="143.725,29.335 143.509,29.335 143.319,29.33 		"/>
		<path fill="#FF29F5" d="M146.768,34h-0.583c-0.307-4-1.139-5-2.944-5h0.381c0,0,0.001,0,0.004,0C145.554,29,146.441,30,146.768,34
			z"/>
		<path fill="#FFFFFF" d="M152.601,34h-5.833c-0.326-4-1.214-5-3.143-5c-0.003,0-0.004,0-0.004,0h-0.479l0.294,0.164L141,29.272V34
			h-7v-8h15.949c-0.64,0-1.241,0.786-1.596,0.99c2.27,0.463,4.069,4.056,4.222,5.66C152.59,32.789,152.596,34,152.601,34z"/>
		<path fill="#1A41FF" d="M153.291,34h-0.69c-0.005,0-0.011-1.248-0.025-1.391c-0.152-1.604-1.952-4.717-4.222-5.18
			c0.354-0.205,0.956-1.43,1.596-1.43h0.722c-0.661,0-1.283,0.82-1.644,1.029c2.268,0.463,4.09,4.053,4.239,5.656
			C153.278,32.818,153.286,34,153.291,34z"/>
		<rect x="142" y="32.365" fill="#1A41FF" width="0" height="7.288"/>
		<rect x="135" y="34" fill="#FFFFFF" width="7" height="6"/>
		<rect x="135" y="32.365" fill="#FF29F5" width="0" height="7.288"/>
		<path fill="#FFFFFF" d="M154.143,40h-5.876c-0.056-1-0.104-1.555-0.14-2.162c-0.046-2.545-0.026-1.803-0.038-3.095
			c-0.005-0.435-0.051,0.257-0.156-0.743h5.832C153.79,35,153.623,37,154.143,40z"/>
		<path fill="#FF29F5" d="M148.267,40h-0.59c-0.061-1-0.108-1.571-0.145-2.19c-0.043-2.545-0.022-1.807-0.035-3.098
			C147.495,34.285,147.45,35,147.351,34h0.582c0.105,1,0.151,0.008,0.156,0.446c0.012,1.29-0.008,1.284,0.038,3.828
			C148.162,38.881,148.211,39,148.267,40z"/>
		<path fill="#1A41FF" d="M154.856,40h-0.714c-0.52-3-0.353-5-0.378-6h0.691C154.489,35,154.333,37,154.856,40z"/>
	</g>
	<rect x="155.068" y="34" fill="#1A41FF" width="29.15" height="0"/>
	<ellipse fill="#1A41FF" cx="166.449" cy="20.536" rx="4.117" ry="1.382"/>
	<circle fill="#FF29F5" cx="132.01" cy="36.218" r="0.801"/>
	<circle fill="#FF29F5" cx="34.159" cy="29.297" r="0.801"/>
</g>
</svg>
