<?xml version="1.0" encoding="utf-8"?>
<!-- Generator: Adobe Illustrator 24.0.1, SVG Export Plug-In . SVG Version: 6.00 Build 0)  -->
<svg version="1.1" id="Layer_1" xmlns="http://www.w3.org/2000/svg" xmlns:xlink="http://www.w3.org/1999/xlink" x="0px" y="0px"
	 viewBox="0 0 70 70" style="enable-background:new 0 0 70 70;" xml:space="preserve">
<style type="text/css">
	.st0{fill:#F1258F;}
	.st1{fill:#243C98;}
	.st2{fill:none;stroke:#F1258F;stroke-width:2;stroke-miterlimit:10;}
	.st3{fill:none;stroke:#243C98;stroke-width:2;stroke-miterlimit:10;}
	.st4{fill:none;stroke:#FFFFFF;stroke-width:2;stroke-miterlimit:10;}
	.st5{fill:#FFFFFF;}
	.st6{fill:#F1258F;stroke:#F1258F;stroke-width:0.25;stroke-miterlimit:10;}
	.st7{font-family:'MyriadPro-Regular';}
	.st8{font-size:17.7617px;}
	.st9{fill:#243C98;stroke:#243C98;stroke-width:0.25;stroke-miterlimit:10;}
	.st10{fill:#FFFFFF;stroke:#FFFFFF;stroke-width:0.25;stroke-miterlimit:10;}
</style>
<rect x="-24.65" y="5.88" class="st0" width="19" height="20"/>
<rect x="-24.65" y="31.88" class="st1" width="19" height="20"/>
<g>
	<path class="st2" d="M36.39,60.17c0,0,30.59,0.95,30.19-25.47S37.46,10.59,37.46,10.59"/>
	<g>
		<path class="st0" d="M42.54,12.83l-0.2,0.42c-0.18,0.39-0.65,0.56-1.03,0.38l-4.56-2.22c-0.38-0.19-0.55-0.66-0.37-1.05l0.2-0.42
			c0.18-0.39,0.65-0.56,1.03-0.38l4.56,2.22C42.56,11.96,42.72,12.44,42.54,12.83z"/>
		<path class="st0" d="M36.39,10.72l0.2,0.42c0.18,0.39,0.65,0.56,1.03,0.38l4.56-2.22c0.38-0.19,0.55-0.66,0.37-1.05l-0.2-0.42
			c-0.18-0.39-0.65-0.56-1.03-0.38l-4.56,2.22C36.37,9.85,36.21,10.33,36.39,10.72z"/>
	</g>
	<path class="st0" d="M36.57,61.19h-1.36c-0.45,0-0.82-0.37-0.82-0.82v-0.4c0-0.45,0.37-0.82,0.82-0.82h1.36
		c0.45,0,0.82,0.37,0.82,0.82v0.4C37.38,60.82,37.02,61.19,36.57,61.19z"/>
	<path class="st2" d="M31.61,9.83c0,0-30.59-0.95-30.19,25.47s29.13,24.11,29.13,24.11"/>
	<g>
		<path class="st0" d="M25.46,57.17l0.2-0.42c0.18-0.39,0.65-0.56,1.03-0.38l4.56,2.22c0.38,0.19,0.55,0.66,0.37,1.05l-0.2,0.42
			c-0.18,0.39-0.65,0.56-1.03,0.38l-4.56-2.22C25.44,58.04,25.28,57.56,25.46,57.17z"/>
		<path class="st0" d="M31.61,59.28l-0.2-0.42c-0.18-0.39-0.65-0.56-1.03-0.38l-4.56,2.22c-0.38,0.19-0.55,0.66-0.37,1.05l0.2,0.42
			c0.18,0.39,0.65,0.56,1.03,0.38l4.56-2.22C31.63,60.15,31.79,59.67,31.61,59.28z"/>
	</g>
	<path class="st0" d="M31.43,8.83h1.36c0.45,0,0.82,0.37,0.82,0.82v0.32c0,0.45-0.37,0.82-0.82,0.82h-1.36
		c-0.45,0-0.82-0.37-0.82-0.82V9.65C30.62,9.2,30.98,8.83,31.43,8.83z"/>
</g>
<g>
	<path class="st3" d="M38.39,60.17c0,0,30.59,0.95,30.19-25.47S39.46,10.59,39.46,10.59"/>
	<g>
		<path class="st1" d="M44.54,12.83l-0.2,0.42c-0.18,0.39-0.65,0.56-1.03,0.38l-4.56-2.22c-0.38-0.19-0.55-0.66-0.37-1.05l0.2-0.42
			c0.18-0.39,0.65-0.56,1.03-0.38l4.56,2.22C44.56,11.96,44.72,12.44,44.54,12.83z"/>
		<path class="st1" d="M38.39,10.72l0.2,0.42c0.18,0.39,0.65,0.56,1.03,0.38l4.56-2.22c0.38-0.19,0.55-0.66,0.37-1.05l-0.2-0.42
			c-0.18-0.39-0.65-0.56-1.03-0.38l-4.56,2.22C38.37,9.85,38.21,10.33,38.39,10.72z"/>
	</g>
	<path class="st1" d="M38.57,61.19h-1.36c-0.45,0-0.82-0.37-0.82-0.82v-0.4c0-0.45,0.37-0.82,0.82-0.82h1.36
		c0.45,0,0.82,0.37,0.82,0.82v0.4C39.38,60.82,39.02,61.19,38.57,61.19z"/>
	<path class="st3" d="M33.61,9.83c0,0-30.59-0.95-30.19,25.47s29.13,24.11,29.13,24.11"/>
	<g>
		<path class="st1" d="M27.46,57.17l0.2-0.42c0.18-0.39,0.65-0.56,1.03-0.38l4.56,2.22c0.38,0.19,0.55,0.66,0.37,1.05l-0.2,0.42
			c-0.18,0.39-0.65,0.56-1.03,0.38l-4.56-2.22C27.44,58.04,27.28,57.56,27.46,57.17z"/>
		<path class="st1" d="M33.61,59.28l-0.2-0.42c-0.18-0.39-0.65-0.56-1.03-0.38l-4.56,2.22c-0.38,0.19-0.55,0.66-0.37,1.05l0.2,0.42
			c0.18,0.39,0.65,0.56,1.03,0.38l4.56-2.22C33.63,60.15,33.79,59.67,33.61,59.28z"/>
	</g>
	<path class="st1" d="M33.43,8.83h1.36c0.45,0,0.82,0.37,0.82,0.82v0.32c0,0.45-0.37,0.82-0.82,0.82h-1.36
		c-0.45,0-0.82-0.37-0.82-0.82V9.65C32.62,9.2,32.98,8.83,33.43,8.83z"/>
</g>
<g>
	<path class="st4" d="M37.39,60.17c0,0,30.59,0.95,30.19-25.47S38.46,10.59,38.46,10.59"/>
	<g>
		<path class="st5" d="M43.54,12.83l-0.2,0.42c-0.18,0.39-0.65,0.56-1.03,0.38l-4.56-2.22c-0.38-0.19-0.55-0.66-0.37-1.05l0.2-0.42
			c0.18-0.39,0.65-0.56,1.03-0.38l4.56,2.22C43.56,11.96,43.72,12.44,43.54,12.83z"/>
		<path class="st5" d="M37.39,10.72l0.2,0.42c0.18,0.39,0.65,0.56,1.03,0.38l4.56-2.22c0.38-0.19,0.55-0.66,0.37-1.05l-0.2-0.42
			c-0.18-0.39-0.65-0.56-1.03-0.38l-4.56,2.22C37.37,9.85,37.21,10.33,37.39,10.72z"/>
	</g>
	<path class="st5" d="M37.57,61.19h-1.36c-0.45,0-0.82-0.37-0.82-0.82v-0.4c0-0.45,0.37-0.82,0.82-0.82h1.36
		c0.45,0,0.82,0.37,0.82,0.82v0.4C38.38,60.82,38.02,61.19,37.57,61.19z"/>
	<path class="st4" d="M32.61,9.83c0,0-30.59-0.95-30.19,25.47s29.13,24.11,29.13,24.11"/>
	<g>
		<path class="st5" d="M26.46,57.17l0.2-0.42c0.18-0.39,0.65-0.56,1.03-0.38l4.56,2.22c0.38,0.19,0.55,0.66,0.37,1.05l-0.2,0.42
			c-0.18,0.39-0.65,0.56-1.03,0.38l-4.56-2.22C26.44,58.04,26.28,57.56,26.46,57.17z"/>
		<path class="st5" d="M32.61,59.28l-0.2-0.42c-0.18-0.39-0.65-0.56-1.03-0.38l-4.56,2.22c-0.38,0.19-0.55,0.66-0.37,1.05l0.2,0.42
			c0.18,0.39,0.65,0.56,1.03,0.38l4.56-2.22C32.63,60.15,32.79,59.67,32.61,59.28z"/>
	</g>
	<path class="st5" d="M32.43,8.83h1.36c0.45,0,0.82,0.37,0.82,0.82v0.32c0,0.45-0.37,0.82-0.82,0.82h-1.36
		c-0.45,0-0.82-0.37-0.82-0.82V9.65C31.62,9.2,31.98,8.83,32.43,8.83z"/>
</g>
<text transform="matrix(1 0 0 1 19.5864 40.2131)" class="st6 st7 st8">Ágil</text>
<text transform="matrix(1 0 0 1 21.5867 40.2131)" class="st9 st7 st8">Ágil</text>
<text transform="matrix(1 0 0 1 20.5864 40.2131)" class="st10 st7 st8">Ágil</text>
</svg>
