<?xml version="1.0" encoding="utf-8"?>
<!-- Generator: Adobe Illustrator 24.0.1, SVG Export Plug-In . SVG Version: 6.00 Build 0)  -->
<svg version="1.1" id="Layer_1" xmlns="http://www.w3.org/2000/svg" xmlns:xlink="http://www.w3.org/1999/xlink" x="0px" y="0px"
	 viewBox="0 0 70 70" style="enable-background:new 0 0 70 70;" xml:space="preserve">
<style type="text/css">
	.st0{fill:#F1258F;}
	.st1{fill:#243C98;}
	.st2{fill:#FFFFFF;}
</style>
<rect x="-31.38" y="8.44" class="st0" width="19" height="20"/>
<rect x="-31.38" y="34.44" class="st1" width="19" height="20"/>
<g>
	<path class="st0" d="M56.55,2.65v42.38c-2.32-2.72-5.43-4.69-8.94-5.48V2.65c0-1.47,1.12-2.65,2.48-2.65h3.98
		C55.43,0,56.55,1.18,56.55,2.65z"/>
	<g>
		<path class="st0" d="M15.84,69.81h-3.98c-1.36,0-2.48-1.2-2.48-2.66V2.66C9.38,1.2,10.49,0,11.85,0h3.98c0.52,0,1,0.17,1.4,0.47
			c0.65,0.48,1.08,1.28,1.08,2.19v64.5C18.31,68.62,17.2,69.81,15.84,69.81z"/>
		<polygon class="st0" points="60.67,69.81 17.24,0.47 17.24,16.57 51.77,67.29 		"/>
	</g>
</g>
<g>
	<path class="st1" d="M60.55,2.65v42.38c-2.32-2.72-5.43-4.69-8.94-5.48V2.65c0-1.47,1.12-2.65,2.48-2.65h3.98
		C59.43,0,60.55,1.18,60.55,2.65z"/>
	<g>
		<path class="st1" d="M19.84,69.81h-3.98c-1.36,0-2.48-1.2-2.48-2.66V2.66C13.38,1.2,14.49,0,15.85,0h3.98c0.52,0,1,0.17,1.4,0.47
			c0.65,0.48,1.08,1.28,1.08,2.19v64.5C22.31,68.62,21.2,69.81,19.84,69.81z"/>
		<polygon class="st1" points="64.67,69.81 21.24,0.47 21.24,16.57 55.77,67.29 		"/>
	</g>
</g>
<g>
	<path class="st2" d="M58.55,2.65v42.38c-2.32-2.72-5.43-4.69-8.94-5.48V2.65c0-1.47,1.12-2.65,2.48-2.65h3.98
		C57.43,0,58.55,1.18,58.55,2.65z"/>
	<g>
		<path class="st2" d="M17.84,69.81h-3.98c-1.36,0-2.48-1.2-2.48-2.66V2.66C11.38,1.2,12.49,0,13.85,0h3.98c0.52,0,1,0.17,1.4,0.47
			c0.65,0.48,1.08,1.28,1.08,2.19v64.5C20.31,68.62,19.2,69.81,17.84,69.81z"/>
		<polygon class="st2" points="62.67,69.81 19.24,0.47 19.24,16.57 53.77,67.29 		"/>
	</g>
</g>
</svg>
