<?xml version="1.0" encoding="utf-8"?>
<!-- Generator: Adobe Illustrator 16.0.0, SVG Export Plug-In . SVG Version: 6.00 Build 0)  -->
<!DOCTYPE svg PUBLIC "-//W3C//DTD SVG 1.1//EN" "http://www.w3.org/Graphics/SVG/1.1/DTD/svg11.dtd">
<svg version="1.1" id="Layer_1" xmlns="http://www.w3.org/2000/svg" xmlns:xlink="http://www.w3.org/1999/xlink" x="0px" y="0px"
	 width="70px" height="70px" viewBox="0 0 70 70" enable-background="new 0 0 70 70" xml:space="preserve">
<rect x="-37" y="5" fill="#FF29F5" width="19" height="20"/>
<rect x="-37" y="31" fill="#1A41FF" width="19" height="20"/>
<circle fill="#1A41FF" cx="37.031" cy="34.75" r="3.562"/>
<ellipse fill="none" stroke="#1A41FF" stroke-width="2" stroke-miterlimit="10" cx="37.289" cy="35.561" rx="9.848" ry="32.404"/>
<path fill="none" stroke="#1A41FF" stroke-width="2" stroke-miterlimit="10" d="M44.252,28.192
	c11.963,12.655,18.54,26.213,14.692,30.281c-3.843,4.068-16.658-2.89-28.62-15.546C18.367,30.274,11.787,16.717,15.633,12.65
	C19.479,8.579,32.292,15.54,44.252,28.192z"/>
<path fill="none" stroke="#1A41FF" stroke-width="2" stroke-miterlimit="10" d="M30.325,28.192
	c-11.961,12.655-18.54,26.213-14.69,30.281c3.843,4.068,16.657-2.89,28.616-15.546C56.213,30.274,62.79,16.717,58.944,12.65
	C55.099,8.579,42.286,15.54,30.325,28.192z"/>
<path fill="none" stroke="#1A41FF" stroke-width="2" stroke-miterlimit="10" d="M37.289,25.141
	c-16.916,0-30.627,4.666-30.627,10.422c-0.001,5.752,13.711,10.419,30.627,10.419c16.914-0.001,30.625-4.669,30.626-10.419
	C67.914,29.807,54.203,25.141,37.289,25.141z"/>
<ellipse fill="none" stroke="#1A41FF" stroke-width="2" stroke-miterlimit="10" cx="37.289" cy="35.561" rx="9.848" ry="32.404"/>
<path fill="none" stroke="#1A41FF" stroke-width="2" stroke-miterlimit="10" d="M44.252,28.192
	c11.963,12.655,18.54,26.213,14.692,30.281c-3.843,4.068-16.658-2.89-28.62-15.546C18.367,30.274,11.787,16.717,15.633,12.65
	C19.479,8.579,32.292,15.54,44.252,28.192z"/>
<path fill="none" stroke="#1A41FF" stroke-width="2" stroke-miterlimit="10" d="M30.325,28.192
	c-11.961,12.655-18.54,26.213-14.69,30.281c3.843,4.068,16.657-2.89,28.616-15.546C56.213,30.274,62.79,16.717,58.944,12.65
	C55.099,8.579,42.286,15.54,30.325,28.192z"/>
<path fill="none" stroke="#1A41FF" stroke-width="2" stroke-miterlimit="10" d="M37.289,25.141
	c-16.916,0-30.627,4.666-30.627,10.422c-0.001,5.752,13.711,10.419,30.627,10.419c16.914-0.001,30.625-4.669,30.626-10.419
	C67.914,29.807,54.203,25.141,37.289,25.141z"/>
<circle fill="#FF29F5" cx="33.194" cy="34.75" r="3.562"/>
<ellipse fill="none" stroke="#FF29F5" stroke-width="2" stroke-miterlimit="10" cx="33.438" cy="35.561" rx="9.849" ry="32.404"/>
<path fill="none" stroke="#FF29F5" stroke-width="2" stroke-miterlimit="10" d="M40.402,28.192
	c11.96,12.655,18.54,26.213,14.691,30.281c-3.845,4.068-16.656-2.89-28.619-15.546C14.515,30.274,7.937,16.717,11.784,12.65
	C15.628,8.579,28.442,15.54,40.402,28.192z"/>
<path fill="none" stroke="#FF29F5" stroke-width="2" stroke-miterlimit="10" d="M26.476,28.192
	c-11.962,12.655-18.54,26.213-14.69,30.281c3.842,4.068,16.657-2.89,28.616-15.546c11.96-12.653,18.539-26.21,14.695-30.278
	C51.246,8.579,38.438,15.54,26.476,28.192z"/>
<path fill="none" stroke="#FF29F5" stroke-width="2" stroke-miterlimit="10" d="M33.439,25.141
	c-16.916,0-30.628,4.666-30.627,10.422c-0.001,5.752,13.711,10.419,30.625,10.419c16.915-0.001,30.629-4.669,30.63-10.419
	C64.066,29.807,50.353,25.141,33.439,25.141z"/>
<ellipse fill="none" stroke="#FF29F5" stroke-width="2" stroke-miterlimit="10" cx="33.438" cy="35.561" rx="9.849" ry="32.404"/>
<path fill="none" stroke="#FF29F5" stroke-width="2" stroke-miterlimit="10" d="M40.402,28.192
	c11.96,12.655,18.54,26.213,14.691,30.281c-3.845,4.068-16.656-2.89-28.619-15.546C14.515,30.274,7.937,16.717,11.784,12.65
	C15.628,8.579,28.442,15.54,40.402,28.192z"/>
<path fill="none" stroke="#FF29F5" stroke-width="2" stroke-miterlimit="10" d="M26.476,28.192
	c-11.962,12.655-18.54,26.213-14.69,30.281c3.842,4.068,16.657-2.89,28.616-15.546c11.96-12.653,18.539-26.21,14.695-30.278
	C51.246,8.579,38.438,15.54,26.476,28.192z"/>
<path fill="none" stroke="#FF29F5" stroke-width="2" stroke-miterlimit="10" d="M33.439,25.141
	c-16.916,0-30.628,4.666-30.627,10.422c-0.001,5.752,13.711,10.419,30.625,10.419c16.915-0.001,30.629-4.669,30.63-10.419
	C64.066,29.807,50.353,25.141,33.439,25.141z"/>
<ellipse fill="none" stroke="#FFFFFF" stroke-width="2" stroke-miterlimit="10" cx="35.364" cy="35.561" rx="9.848" ry="32.404"/>
<path fill="none" stroke="#FFFFFF" stroke-width="2" stroke-miterlimit="10" d="M42.326,28.192
	c11.963,12.655,18.541,26.213,14.692,30.281c-3.843,4.068-16.658-2.89-28.618-15.546C16.44,30.274,9.861,16.717,13.708,12.65
	C17.554,8.579,30.368,15.54,42.326,28.192z"/>
<path fill="none" stroke="#FFFFFF" stroke-width="2" stroke-miterlimit="10" d="M28.4,28.192
	C16.438,40.848,9.86,54.405,13.709,58.474c3.843,4.068,16.658-2.89,28.616-15.546C54.284,30.274,60.864,16.717,57.02,12.65
	C53.173,8.579,40.36,15.54,28.4,28.192z"/>
<path fill="none" stroke="#FFFFFF" stroke-width="2" stroke-miterlimit="10" d="M35.364,25.141
	c-16.915,0-30.627,4.666-30.626,10.422c-0.001,5.752,13.711,10.419,30.626,10.419c16.915-0.001,30.626-4.669,30.626-10.419
	C65.989,29.807,52.278,25.141,35.364,25.141z"/>
<ellipse fill="none" stroke="#FFFFFF" stroke-width="2" stroke-miterlimit="10" cx="35.364" cy="35.561" rx="9.848" ry="32.404"/>
<path fill="none" stroke="#FFFFFF" stroke-width="2" stroke-miterlimit="10" d="M42.326,28.192
	c11.963,12.655,18.541,26.213,14.692,30.281c-3.843,4.068-16.658-2.89-28.618-15.546C16.44,30.274,9.861,16.717,13.708,12.65
	C17.554,8.579,30.368,15.54,42.326,28.192z"/>
<path fill="none" stroke="#FFFFFF" stroke-width="2" stroke-miterlimit="10" d="M28.4,28.192
	C16.438,40.848,9.86,54.405,13.709,58.474c3.843,4.068,16.658-2.89,28.616-15.546C54.284,30.274,60.864,16.717,57.02,12.65
	C53.173,8.579,40.36,15.54,28.4,28.192z"/>
<path fill="none" stroke="#FFFFFF" stroke-width="2" stroke-miterlimit="10" d="M35.364,25.141
	c-16.915,0-30.627,4.666-30.626,10.422c-0.001,5.752,13.711,10.419,30.626,10.419c16.915-0.001,30.626-4.669,30.626-10.419
	C65.989,29.807,52.278,25.141,35.364,25.141z"/>
<circle fill="#FFFFFF" cx="35.113" cy="34.75" r="3.562"/>
</svg>
