<?xml version="1.0" encoding="utf-8"?>
<!-- Generator: Adobe Illustrator 16.0.0, SVG Export Plug-In . SVG Version: 6.00 Build 0)  -->
<!DOCTYPE svg PUBLIC "-//W3C//DTD SVG 1.1//EN" "http://www.w3.org/Graphics/SVG/1.1/DTD/svg11.dtd">
<svg version="1.1" id="Layer_1" xmlns="http://www.w3.org/2000/svg" xmlns:xlink="http://www.w3.org/1999/xlink" x="0px" y="0px"
	 width="50px" height="50px" viewBox="0 0 50 50" enable-background="new 0 0 50 50" xml:space="preserve">
<ellipse fill="#1A41FF" cx="-8.604" cy="5.804" rx="6.8" ry="21.667"/>
<ellipse fill="#FF29F5" cx="-29.363" cy="8.069" rx="6.798" ry="21.932"/>
<path fill="#FFFFFF" d="M-15.321,49.068c0-12.111-3.048-21.932-6.798-21.932c-3.758,0-6.799,9.82-6.799,21.932S-25.877,71-22.119,71
	C-18.369,71-15.321,61.18-15.321,49.068z"/>
<g>
	<path fill="#1A41FF" stroke="#FF29F5" stroke-width="0.75" stroke-miterlimit="10" d="M24.65,3.51c-2.36,1.37-4.28,6.67-5.12,13.71
		c-0.43,0.03-0.85,0.06-1.26,0.11c-0.43,0.03-0.86,0.08-1.27,0.12c0.94-8.34,3.45-14.31,6.4-14.31c0.21,0,0.41,0.03,0.62,0.09
		S24.44,3.38,24.65,3.51z"/>
	<path fill="#1A41FF" stroke="#FF29F5" stroke-width="0.75" stroke-miterlimit="10" d="M24.19,46.32
		c-0.26,0.1-0.52,0.149-0.79,0.149c-0.09,0-0.18-0.01-0.27-0.02c-2.77-0.34-5.1-5.931-6.06-13.74c-0.05-0.41-0.1-0.84-0.14-1.27
		c-0.05-0.41-0.09-0.841-0.12-1.271c0.4,0.05,0.8,0.1,1.22,0.13c0.41,0.05,0.82,0.08,1.25,0.12c0.04,0.42,0.07,0.85,0.12,1.26
		c0.04,0.431,0.08,0.851,0.13,1.261C20.31,39.51,22.05,44.55,24.19,46.32z"/>
	<path fill="#FF29F5" stroke="#FF29F5" stroke-width="0.75" stroke-miterlimit="10" d="M25.26,46.91C25.05,46.97,24.85,47,24.64,47
		c-0.52,0-1.03-0.19-1.51-0.55c-2.24-1.63-4.05-6.82-4.85-13.62c-0.05-0.42-0.1-0.84-0.13-1.271c-0.05-0.42-0.08-0.84-0.12-1.26
		c0.41,0.05,0.82,0.08,1.25,0.12c0.04,0.42,0.07,0.85,0.12,1.26c0.04,0.431,0.08,0.851,0.13,1.261
		c0.78,6.569,2.52,11.609,4.66,13.38C24.54,46.6,24.9,46.8,25.26,46.91z"/>
	<path fill="#FFFFFF" stroke="#FF29F5" stroke-width="0.75" stroke-miterlimit="10" d="M46.57,24.391c0.06,0.21,0,0.469,0,0.679
		c0,0.52-0.19,1.03-0.551,1.52c-1.488,1.941-5.949,5.09-13.75,6.061C31.3,41.03,28.8,47,25.88,47c-0.21,0-0.41-0.03-0.62-0.09
		c-0.36-0.11-0.72-0.311-1.07-0.59c-2.14-1.771-3.88-6.811-4.66-13.38c-0.05-0.41-0.09-0.83-0.13-1.261
		c-0.05-0.41-0.08-0.84-0.12-1.26c-0.43-0.04-0.84-0.07-1.25-0.12c-0.42-0.03-0.82-0.08-1.22-0.13c-7.04-0.83-12.33-2.75-13.73-5.1
		c-0.13-0.2-0.22-0.41-0.28-0.62c-0.06-0.2-0.09-0.41-0.09-0.62c0-2.92,5.95-5.41,14.29-6.38c0.41-0.04,0.84-0.09,1.27-0.12
		c0.41-0.05,0.83-0.08,1.26-0.11c0.84-7.04,2.76-12.34,5.12-13.71c0.2-0.13,0.41-0.22,0.61-0.28c0.21-0.06,0.41-0.09,0.62-0.09
		c2.92,0,5.42,5.95,6.38,14.31c8.351,0.96,14.311,3.46,14.311,6.38C46.57,24.04,46.63,24.19,46.57,24.391z"/>
	<path fill="#FF29F5" stroke="#FF29F5" stroke-width="0.75" stroke-miterlimit="10" d="M25.26,3.23c-0.2,0.06-0.41,0.15-0.61,0.28
		c-2.36,1.37-4.28,6.67-5.12,13.71c-0.43,0.03-0.85,0.06-1.26,0.11c0.91-7.7,3.11-13.34,5.75-14.1c0.21-0.06,0.41-0.09,0.62-0.09
		S25.05,3.17,25.26,3.23z"/>
</g>
<g>
	<path fill="#1A41FF" d="M19.53,32.94c-0.43-0.03-0.84-0.061-1.25-0.11c-0.41-0.03-0.82-0.07-1.21-0.12
		c-8.37-0.94-14.36-3.45-14.36-6.4c0-0.21,0.03-0.41,0.09-0.62c0.06-0.21,0.15-0.42,0.28-0.62c1.4,2.35,6.69,4.27,13.73,5.1
		c0.4,0.05,0.8,0.1,1.22,0.13c0.41,0.05,0.82,0.08,1.25,0.12c0.04,0.42,0.07,0.85,0.12,1.26C19.44,32.11,19.48,32.53,19.53,32.94z"
		/>
	<path fill="#FF29F5" d="M19.4,31.68c-0.43-0.04-0.84-0.069-1.25-0.12c-0.42-0.029-0.82-0.079-1.22-0.119
		c-7.71-0.9-13.36-3.11-14.13-5.75c-0.06-0.21-0.09-0.41-0.09-0.62s0.03-0.41,0.09-0.62c0.06,0.21,0.15,0.42,0.28,0.62
		c1.4,2.35,6.69,4.27,13.73,5.1c0.4,0.05,0.8,0.1,1.22,0.13c0.41,0.05,0.82,0.08,1.25,0.12C19.32,30.84,19.35,31.27,19.4,31.68z"/>
</g>
</svg>
